<svg width="77" height="81" viewBox="0 0 77 81" fill="none" xmlns="http://www.w3.org/2000/svg">
  <g clip-path="url(#clip0_577_41719)">
    <path d="M76.7704 39.1302C76.7704 59.4002 60.4104 75.8202 40.2304 75.8202C20.0504 75.8202 3.69043 59.3902 3.69043 39.1302C3.69043 18.8702 20.0504 2.44019 40.2304 2.44019C60.4104 2.44019 76.7704 18.8702 76.7704 39.1302Z" fill="white"/>
    <path d="M40.2304 75.8202C60.4109 75.8202 76.7704 59.3935 76.7704 39.1302C76.7704 18.8669 60.4109 2.44019 40.2304 2.44019C20.0499 2.44019 3.69043 18.8669 3.69043 39.1302C3.69043 59.3935 20.0499 75.8202 40.2304 75.8202Z" stroke="#0B0907" stroke-width="0.417" stroke-miterlimit="10"/>
    <path d="M75.2402 38.43C75.2402 58.7 58.8802 75.12 38.7002 75.12C18.5202 75.12 2.16016 58.69 2.16016 38.43C2.16016 18.17 18.5202 1.73999 38.7002 1.73999C58.8802 1.73999 75.2402 18.17 75.2402 38.43Z" fill="#0B0907"/>
    <path d="M73.5204 37.0201C73.5204 57.2901 57.1604 73.7101 36.9804 73.7101C16.8004 73.7101 0.44043 57.2801 0.44043 37.0201C0.44043 16.7601 16.8004 0.320068 36.9804 0.320068C57.1604 0.320068 73.5204 16.7501 73.5204 37.0201Z" fill="#D5221C"/>
    <path d="M10.3303 25.25C10.4403 25.02 10.6703 24.9 10.7903 24.7C11.2203 24.01 11.8603 23.64 12.6203 23.45C13.4303 23.24 14.1003 23.51 14.5603 24.28C14.9503 24.93 15.1903 25.66 15.5703 26.31C15.8503 26.77 16.2303 27.18 16.6203 27.57C16.9803 27.93 17.3103 27.76 17.5403 27.37C17.6503 27.18 17.7603 26.97 17.8103 26.76C18.0403 25.84 18.6403 25.28 19.4803 24.9C20.2103 24.57 20.6203 24.63 20.9103 25.39C21.3703 26.64 21.9203 27.9 22.0903 29.2C22.4103 31.67 22.5103 34.16 22.6603 36.65C22.7103 37.46 22.5303 37.58 21.7303 37.55C19.8003 37.48 19.7703 37.48 19.5303 35.54C19.4303 34.73 19.4903 33.9 19.4603 33.08C19.4103 31.66 19.3403 30.24 19.2703 28.82C19.2603 28.67 19.2303 28.48 19.1403 28.38C18.9403 28.17 18.6903 28 18.4603 27.81C18.3103 28.06 18.0903 28.29 18.0403 28.56C17.9503 28.99 18.0203 29.45 17.9403 29.89C17.7703 30.8 17.0703 31.05 16.4803 30.34C15.8703 29.62 15.4303 28.75 14.9103 27.95C14.7903 27.76 14.6403 27.6 14.4203 27.32C14.3403 27.58 14.2603 27.7 14.2603 27.82C14.3003 30 14.2903 32.19 14.4203 34.36C14.4703 35.2 14.8403 36.03 15.1003 36.86C15.3403 37.61 15.1103 37.97 14.3403 37.85C12.4303 37.55 11.6003 36.9 11.4103 35.13C11.1903 33.12 11.0503 31.1 10.8303 29.08C10.7603 28.5 10.5303 27.93 10.3603 27.36C10.3403 27.29 10.3303 27.23 10.3303 27.16C10.3203 26.48 10.2603 25.51 10.3303 25.25Z" fill="#0B0907"/>
    <path d="M67.1107 51.8402C66.6407 52.2102 66.1907 52.6102 65.6907 52.9102C65.1907 53.2102 64.6107 53.3902 64.0607 53.6102C63.6707 53.7702 63.2807 53.9102 62.8907 54.0702C62.7907 54.1102 62.7807 54.1902 62.5907 54.2002C61.1107 54.3202 59.5907 54.2302 58.3807 53.0902C57.9507 52.6802 57.4307 52.3602 57.0007 51.9402C56.7507 51.6902 56.4407 51.3302 56.4507 51.0202C56.4607 49.6902 56.3907 48.3302 56.6907 47.0502C57.5207 43.4302 60.6307 42.8202 63.3407 43.7402C64.7707 44.2302 65.8707 45.1402 66.2607 46.7002C66.4907 47.6102 66.2707 48.0402 65.3707 48.3202C64.1007 48.7202 62.8207 49.0902 61.5407 49.4502C60.6307 49.7002 60.3707 50.3902 60.9007 51.1902C62.0407 52.9002 64.1307 53.0302 65.4707 51.4802C65.7507 51.1602 66.0207 50.8102 66.3707 50.6302C67.1107 50.2002 67.7807 51.3102 67.1107 51.8402ZM61.1407 48.2502C61.8307 48.2402 62.6007 48.1402 62.8207 47.4402C62.9507 47.0202 62.7307 46.3802 62.4607 45.9802C62.2607 45.7002 61.6807 45.4902 61.3307 45.5602C61.0207 45.6202 60.7307 46.0702 60.5407 46.4102C60.4007 46.6602 60.4507 47.0202 60.3907 47.3302C60.2507 48.0902 60.3807 48.2602 61.1407 48.2502Z" fill="#0B0907"/>
    <path d="M54.3106 20.1702C54.1606 21.2002 54.0406 22.2402 53.8506 23.2702C53.7806 23.6302 53.5806 23.9702 53.3806 24.2802C53.3006 24.4002 53.0506 24.4102 52.8806 24.4702C52.8806 24.3102 52.8606 24.1402 52.8906 23.9802C53.1806 22.8402 53.4906 21.7002 53.7906 20.5602C53.8206 20.4402 53.7906 20.3002 53.7806 20.1702H54.3106Z" fill="#0B0907"/>
    <path d="M44.6307 37.3302C44.6307 37.9302 44.6407 38.5302 44.6207 39.1302C44.6107 39.2902 44.5107 39.4502 44.4507 39.6102C44.2707 39.5402 44.0007 39.5202 43.9407 39.4002C43.7207 38.9902 43.5107 38.5501 43.4207 38.0901C43.2807 37.3502 43.8207 36.5001 42.8807 35.8501C42.7307 35.7501 42.4507 35.7002 42.2707 35.7402C41.7507 35.8702 41.3207 36.2001 40.8707 36.5001C40.7007 36.6101 40.5707 36.7602 40.4107 36.8802C39.5607 37.5102 38.6707 38.1602 37.5407 37.7402C36.3007 37.2802 35.5107 36.2402 35.5107 34.9902C35.5207 32.3502 35.9907 29.8001 38.2007 27.9601C39.4207 26.9401 40.9507 26.8301 42.4807 26.6001C42.5807 26.5801 42.6907 26.5401 42.7707 26.4801C43.5107 26.0001 43.9107 25.9001 44.1907 26.4601C44.4207 26.9201 44.6407 27.3702 44.3107 27.9002C44.1807 28.1102 44.1507 28.4101 44.1607 28.6701C44.2407 30.6501 44.3307 32.6201 44.4507 34.5901C44.5007 35.5001 44.6007 36.4102 44.6907 37.3102C44.6607 37.3202 44.6507 37.3302 44.6307 37.3302ZM39.7807 31.8001C39.7707 31.9001 39.7807 32.0001 39.8107 32.1001C39.8907 32.3901 40.0007 32.8102 40.1907 33.1802C40.4007 33.5802 41.5707 33.8902 41.9507 33.7202C42.5307 33.4602 42.2307 32.9602 42.2307 32.5402C42.2407 32.3202 42.2307 32.0901 42.2207 31.8701C42.1607 31.0501 42.1707 30.2201 42.0207 29.4101C41.8707 28.6001 41.4207 28.5002 40.7807 29.0402C39.9907 29.7202 39.9107 30.6601 39.7807 31.8001Z" fill="#0B0907"/>
    <path d="M47.8205 51.8201C47.8405 51.9301 47.8505 52.0501 47.8105 52.1501C47.4905 52.9501 47.0605 53.6801 46.2605 54.0901C45.5305 54.4601 44.9305 54.1901 44.8605 53.3601C44.7405 51.8301 44.7005 50.3001 44.6305 48.7701C44.6005 48.0401 44.6405 47.3001 44.5205 46.5901C44.2905 45.1401 45.3205 43.4901 46.7505 43.1401C47.1105 43.0501 47.3805 43.0601 47.5805 43.4001C47.7205 43.6601 48.1105 43.7901 48.3905 43.7101C49.1405 43.5101 49.8805 43.3101 50.5905 43.9101C50.6805 43.9801 50.9805 43.8201 51.1805 43.7401C51.7605 43.5101 52.3105 43.1801 52.9005 43.0501C53.8505 42.8601 54.8505 43.5401 55.0005 44.5801C55.1705 45.7101 55.1505 46.8801 55.1705 48.0301C55.1805 48.6501 55.0705 49.2701 55.0405 49.9001C55.0305 50.0901 55.0205 50.3701 55.1305 50.4701C55.6905 50.9501 55.3505 51.3401 55.0505 51.7201C54.5705 52.3301 54.0805 52.9401 53.5605 53.5201C53.2005 53.9201 52.7905 54.3201 52.1805 54.0901C51.5405 53.8501 51.3905 53.2801 51.5005 52.7101C51.6705 51.7801 51.8205 50.8101 52.2105 49.9601C52.9205 48.3801 52.8705 46.7501 52.8305 45.1101C52.8305 44.9601 52.6205 44.6801 52.5205 44.6801C52.3405 44.6901 52.0605 44.8401 52.0205 44.9801C51.9105 45.4001 51.9205 45.8601 51.8305 46.2901C51.7205 46.8501 51.6405 47.4301 51.4005 47.9401C51.1705 48.4301 50.8205 48.3801 50.6105 47.8601C50.4405 47.4501 50.3805 47.0001 50.3005 46.5701C50.1305 45.7101 49.6805 45.1901 49.0905 45.1801C48.4205 45.1701 47.7205 45.8501 47.5905 46.6501C47.5805 46.7401 47.5705 46.8301 47.5705 46.9201C47.5705 47.6101 47.5705 48.3001 47.5705 48.9901" fill="#0B0907"/>
    <path d="M29.1203 37.8501C28.5303 37.7901 28.0403 37.7601 27.5603 37.7001C26.7503 37.6001 26.0203 37.3301 25.4203 36.7101C25.0203 36.3001 24.5003 36.0001 24.1003 35.5901C23.8403 35.3201 23.5303 34.9301 23.5403 34.6001C23.5903 32.3501 23.5503 30.0301 24.7903 28.0501C24.8703 27.9201 25.0003 27.8201 25.1403 27.7601C28.0003 26.5801 30.8203 26.7001 32.7203 29.0301C32.7603 29.0701 32.7903 29.1301 32.8103 29.1701C33.7803 31.0301 33.6303 31.6401 32.0703 32.0701C30.7403 32.4401 29.4203 32.8401 28.1003 33.2501C27.6603 33.3901 27.4603 33.8401 27.6603 34.2601C28.6803 36.4901 31.0703 36.8301 32.5403 35.1301C32.8003 34.8301 33.0603 34.4901 33.3903 34.2901C33.5903 34.1801 34.0103 34.2301 34.1903 34.3701C34.3303 34.4901 34.3803 34.9501 34.2703 35.1101C33.6003 36.0801 32.7003 36.8001 31.5703 37.1901C30.9903 37.4001 30.4003 37.5901 29.8103 37.7601C29.5603 37.8501 29.2903 37.8401 29.1203 37.8501ZM28.2703 31.9401C28.8403 31.8801 29.6003 31.8501 29.8403 31.1701C29.9903 30.7501 29.8303 30.1001 29.5803 29.7001C29.4003 29.4101 28.8203 29.1901 28.4603 29.2401C28.1403 29.2801 27.8103 29.7101 27.6303 30.0401C27.4703 30.3301 27.5003 30.7301 27.4603 31.0901C27.3603 31.7601 27.5203 31.9401 28.2703 31.9401Z" fill="#0B0907"/>
    <path d="M53.3401 35.28C54.3401 35.28 55.3401 35.28 56.3401 35.28C56.4701 35.28 56.6402 35.24 56.7302 35.31C57.0002 35.48 57.2401 35.68 57.5001 35.88C57.2801 36.1 57.0801 36.46 56.8301 36.5C55.4801 36.75 54.1201 37 52.7501 37.11C51.4801 37.21 50.1701 37.4 48.9201 36.83C48.8001 36.77 48.5301 37 48.3401 37.12C47.9701 37.35 47.5801 37.83 47.2501 37.79C46.6601 37.72 46.6401 37.07 46.5601 36.56C46.0501 33.54 46.2001 30.51 46.5801 27.51C46.7801 25.93 47.3202 24.31 49.0502 23.57C49.2302 23.49 49.5002 23.46 49.6602 23.54C49.7702 23.6 49.8401 23.92 49.7801 24.07C49.1401 26 49.6301 28 49.4201 29.97C49.2701 31.43 49.3102 32.91 49.3002 34.37C49.3002 35.15 49.4801 35.29 50.2601 35.3C51.2801 35.31 52.3101 35.3 53.3301 35.3C53.3401 35.29 53.3401 35.29 53.3401 35.28Z" fill="#0B0907"/>
    <path d="M33.3002 48.3902C33.2402 49.7602 33.1102 51.1202 33.2202 52.4902C33.2202 52.5402 33.2302 52.5802 33.2402 52.6202C33.3602 53.1002 33.5202 54.0602 32.8502 54.1302C32.5402 54.1602 32.1502 53.8102 31.8702 53.5502C31.7202 53.4102 31.7102 53.1002 31.6902 52.8602C31.5402 50.6002 31.3802 48.3302 31.2902 46.0702C31.2602 45.3202 31.6002 44.5302 31.7302 43.8202C31.7902 43.4902 31.6002 43.1202 31.2902 43.0002C30.6102 42.7202 29.8702 42.6402 29.1402 42.5202C28.6902 42.4502 27.9402 41.6402 27.8902 41.1502C27.8402 40.6402 28.2102 40.1402 28.9002 40.0102C29.9102 39.8102 30.9002 39.6002 31.9402 40.1302C33.1402 40.7402 34.4302 40.8102 35.7802 40.4302C36.4902 40.2302 37.2702 40.2702 38.0202 40.2802C38.5102 40.2902 38.6502 40.6202 38.4102 41.0602C37.9302 41.9102 37.2902 42.6102 36.3802 43.0302C36.1002 43.1602 35.8102 43.3202 35.6002 43.5402C35.3702 43.7802 35.0102 43.8502 34.7202 43.7102C34.0802 43.3902 33.6702 43.6202 33.5902 44.2302" fill="#0B0907"/>
    <path d="M39.5107 47.8901C39.5207 45.8501 40.7507 44.6601 42.4007 44.8701C42.9007 44.9301 43.1707 45.3801 42.9907 45.8501C42.8807 46.1401 42.7707 46.4701 42.7707 46.7801C42.7707 48.8901 42.8007 51.0001 42.8207 53.1101C42.8307 53.6901 42.4307 54.0001 41.9607 54.1801C41.4407 54.3801 40.9907 54.1401 40.7807 53.6901C40.4307 52.9501 40.0807 52.1801 39.9307 51.3901C39.6907 50.1601 39.6207 48.9101 39.5107 47.8901Z" fill="#0B0907"/>
    <path d="M39.6506 41.1701C39.6606 40.2701 40.1906 39.7001 41.0306 39.7101C41.8906 39.7201 42.4506 40.1301 42.4306 40.7201C42.4006 41.5301 41.5206 42.4101 40.7306 42.4201C40.0706 42.4301 39.6406 41.9301 39.6506 41.1701Z" fill="#0B0907"/>
    <path d="M62.6407 26.46C62.5007 27.72 59.8407 29.39 58.9307 28.89C60.2007 28.06 61.4207 27.26 62.6407 26.46Z" fill="#0B0907"/>
    <path d="M66.5301 36.05C66.2601 36.18 66.1301 36.29 65.9901 36.3C64.9801 36.39 63.9601 36.47 62.9501 36.51C62.7101 36.52 62.4401 36.37 62.2101 36.25C62.1301 36.21 62.0801 36.02 62.0901 35.91C62.0901 35.85 62.2501 35.76 62.3401 35.76C63.6001 35.77 64.8601 35.8 66.1301 35.83C66.2201 35.84 66.3101 35.93 66.5301 36.05Z" fill="#0B0907"/>
    <path d="M9.52081 24.5901C9.63081 24.3601 9.86081 24.2401 9.98081 24.0401C10.4108 23.3501 11.0508 22.9801 11.8108 22.7901C12.6208 22.5801 13.2908 22.8501 13.7508 23.6201C14.1408 24.2701 14.3808 25.0001 14.7608 25.6501C15.0408 26.1101 15.4208 26.5201 15.8108 26.9101C16.1708 27.2701 16.5008 27.1001 16.7308 26.7101C16.8408 26.5201 16.9508 26.3101 17.0008 26.1001C17.2308 25.1801 17.8308 24.6201 18.6708 24.2401C19.4008 23.9101 19.8108 23.9701 20.1008 24.7301C20.5608 25.9801 21.1108 27.2401 21.2808 28.5401C21.6008 31.0101 21.7008 33.5001 21.8508 35.9901C21.9008 36.8001 21.7208 36.9201 20.9208 36.8901C18.9908 36.8201 18.9608 36.8201 18.7208 34.8801C18.6208 34.0701 18.6808 33.2401 18.6508 32.4201C18.6008 31.0001 18.5308 29.5801 18.4608 28.1601C18.4508 28.0101 18.4208 27.8201 18.3308 27.7201C18.1308 27.5101 17.8808 27.3401 17.6508 27.1501C17.5008 27.4001 17.2808 27.6301 17.2308 27.9001C17.1408 28.3301 17.2108 28.7901 17.1308 29.2301C16.9608 30.1401 16.2608 30.3901 15.6708 29.6801C15.0608 28.9601 14.6208 28.0901 14.1008 27.2901C13.9808 27.1001 13.8308 26.9401 13.6108 26.6601C13.5308 26.9201 13.4508 27.0401 13.4508 27.1601C13.4908 29.3401 13.4808 31.5301 13.6108 33.7001C13.6608 34.5401 14.0308 35.3701 14.2908 36.2001C14.5308 36.9501 14.3008 37.3101 13.5308 37.1901C11.6208 36.8901 10.7908 36.2401 10.6008 34.4701C10.3808 32.4601 10.2408 30.4401 10.0208 28.4201C9.95081 27.8401 9.72081 27.2701 9.55081 26.7001C9.53081 26.6301 9.52081 26.5701 9.52081 26.5001C9.52081 25.8301 9.46081 24.8601 9.52081 24.5901Z" fill="white"/>
    <path d="M66.31 51.18C65.84 51.55 65.39 51.95 64.89 52.25C64.39 52.55 63.81 52.73 63.26 52.95C62.87 53.11 62.48 53.25 62.09 53.41C61.99 53.45 61.98 53.53 61.79 53.54C60.31 53.66 58.79 53.57 57.58 52.43C57.15 52.02 56.63 51.7 56.2 51.28C55.95 51.03 55.64 50.67 55.65 50.36C55.66 49.03 55.59 47.67 55.89 46.39C56.72 42.77 59.83 42.16 62.54 43.08C63.97 43.57 65.07 44.48 65.46 46.04C65.69 46.95 65.47 47.38 64.57 47.66C63.3 48.06 62.02 48.43 60.74 48.79C59.83 49.04 59.57 49.73 60.1 50.53C61.24 52.24 63.33 52.37 64.67 50.82C64.95 50.5 65.22 50.15 65.57 49.97C66.3 49.55 66.98 50.65 66.31 51.18ZM60.34 47.59C61.03 47.58 61.8 47.48 62.02 46.78C62.15 46.36 61.93 45.72 61.66 45.32C61.46 45.04 60.88 44.83 60.53 44.9C60.22 44.96 59.93 45.41 59.74 45.75C59.6 46 59.65 46.36 59.59 46.67C59.44 47.44 59.58 47.6 60.34 47.59Z" fill="white"/>
    <path d="M53.5 19.51C53.35 20.54 53.23 21.58 53.04 22.61C52.97 22.97 52.77 23.31 52.57 23.62C52.49 23.74 52.24 23.75 52.07 23.81C52.07 23.65 52.05 23.48 52.08 23.32C52.37 22.18 52.68 21.04 52.98 19.9C53.01 19.78 52.98 19.64 52.97 19.51H53.5Z" fill="white"/>
    <path d="M43.8204 36.67C43.8204 37.27 43.8304 37.87 43.8104 38.47C43.8004 38.63 43.7004 38.79 43.6404 38.95C43.4604 38.88 43.1904 38.86 43.1204 38.74C42.9004 38.33 42.6904 37.89 42.6004 37.43C42.4604 36.69 43.0004 35.84 42.0604 35.19C41.9104 35.09 41.6304 35.04 41.4504 35.08C40.9304 35.21 40.5004 35.54 40.0504 35.84C39.8804 35.95 39.7504 36.1 39.5904 36.22C38.7404 36.85 37.8504 37.5 36.7204 37.08C35.4804 36.62 34.6904 35.58 34.6904 34.33C34.7004 31.69 35.1704 29.14 37.3804 27.3C38.6004 26.28 40.1304 26.17 41.6604 25.94C41.7604 25.92 41.8704 25.88 41.9504 25.82C42.6904 25.34 43.0904 25.24 43.3704 25.8C43.6004 26.26 43.8204 26.71 43.4904 27.24C43.3604 27.45 43.3304 27.75 43.3404 28.01C43.4204 29.99 43.5104 31.96 43.6304 33.93C43.6804 34.84 43.7804 35.75 43.8704 36.65C43.8604 36.67 43.8404 36.67 43.8204 36.67ZM38.9704 31.14C38.9604 31.24 38.9704 31.34 39.0004 31.44C39.0804 31.73 39.1904 32.15 39.3804 32.52C39.5904 32.92 40.7604 33.23 41.1404 33.06C41.7204 32.8 41.4204 32.3 41.4204 31.88C41.4304 31.66 41.4204 31.43 41.4104 31.21C41.3504 30.39 41.3604 29.56 41.2104 28.75C41.0604 27.94 40.6104 27.84 39.9704 28.38C39.1904 29.06 39.1104 30.01 38.9704 31.14Z" fill="white"/>
    <path d="M47.0206 51.17C47.0406 51.28 47.0507 51.4 47.0107 51.5C46.6907 52.3 46.2606 53.03 45.4606 53.44C44.7306 53.81 44.1306 53.54 44.0606 52.71C43.9306 51.18 43.9007 49.65 43.8307 48.12C43.8007 47.39 43.8407 46.65 43.7207 45.94C43.4907 44.49 44.5206 42.84 45.9506 42.49C46.3106 42.4 46.5806 42.41 46.7806 42.75C46.9206 43.01 47.3106 43.14 47.5906 43.06C48.3406 42.86 49.0807 42.66 49.7907 43.26C49.8807 43.33 50.1806 43.17 50.3806 43.09C50.9606 42.86 51.5006 42.53 52.1006 42.4C53.0506 42.21 54.0506 42.89 54.2006 43.93C54.3706 45.06 54.3507 46.23 54.3707 47.38C54.3807 48 54.2706 48.62 54.2406 49.25C54.2306 49.44 54.2207 49.72 54.3307 49.82C54.8907 50.3 54.5507 50.69 54.2507 51.07C53.7707 51.68 53.2807 52.29 52.7607 52.87C52.4007 53.27 51.9906 53.67 51.3806 53.44C50.7406 53.2 50.5906 52.63 50.7006 52.06C50.8706 51.13 51.0207 50.16 51.4107 49.31C52.1207 47.73 52.0706 46.1 52.0306 44.46C52.0306 44.31 51.8207 44.03 51.7207 44.03C51.5407 44.04 51.2607 44.19 51.2207 44.33C51.1107 44.75 51.1206 45.21 51.0306 45.64C50.9206 46.2 50.8406 46.78 50.6006 47.29C50.3706 47.78 50.0206 47.73 49.8106 47.21C49.6406 46.8 49.5806 46.35 49.5006 45.92C49.3306 45.06 48.8807 44.54 48.2907 44.53C47.6207 44.52 46.9207 45.2 46.7907 46C46.7807 46.09 46.7706 46.18 46.7706 46.27C46.7706 46.96 46.7706 47.65 46.7706 48.34" fill="white"/>
    <path d="M28.3205 37.2C27.7305 37.14 27.2405 37.11 26.7605 37.05C25.9505 36.95 25.2205 36.68 24.6205 36.06C24.2205 35.65 23.7005 35.35 23.3005 34.94C23.0405 34.67 22.7305 34.28 22.7405 33.95C22.7905 31.7 22.7505 29.38 23.9905 27.4C24.0705 27.27 24.2005 27.17 24.3405 27.11C27.2005 25.93 30.0205 26.05 31.9205 28.38C31.9605 28.42 31.9905 28.48 32.0105 28.52C32.9805 30.38 32.8305 30.99 31.2705 31.42C29.9405 31.79 28.6205 32.19 27.3005 32.6C26.8605 32.74 26.6605 33.19 26.8605 33.61C27.8805 35.84 30.2705 36.18 31.7405 34.48C32.0005 34.18 32.2605 33.84 32.5905 33.64C32.7905 33.53 33.2105 33.58 33.3905 33.72C33.5305 33.84 33.5805 34.3 33.4705 34.46C32.8005 35.43 31.9005 36.14 30.7705 36.54C30.1905 36.75 29.6005 36.94 29.0105 37.11C28.7605 37.19 28.4805 37.18 28.3205 37.2ZM27.4605 31.29C28.0305 31.23 28.7905 31.2 29.0305 30.52C29.1805 30.1 29.0205 29.45 28.7705 29.05C28.5905 28.76 28.0105 28.54 27.6505 28.59C27.3305 28.63 27.0005 29.06 26.8205 29.39C26.6605 29.68 26.6905 30.08 26.6505 30.44C26.5605 31.1 26.7205 31.29 27.4605 31.29Z" fill="white"/>
    <path d="M52.5403 34.6201C53.5403 34.6201 54.5403 34.6201 55.5403 34.6201C55.6703 34.6201 55.8403 34.5801 55.9303 34.6501C56.2003 34.8201 56.4403 35.0201 56.7003 35.2201C56.4803 35.4401 56.2803 35.8001 56.0303 35.8401C54.6803 36.0901 53.3203 36.3401 51.9503 36.4501C50.6803 36.5501 49.3703 36.7401 48.1203 36.1701C48.0003 36.1101 47.7303 36.3401 47.5403 36.4601C47.1703 36.6901 46.7803 37.1701 46.4503 37.1301C45.8603 37.0601 45.8403 36.4101 45.7603 35.9001C45.2503 32.8801 45.4003 29.8501 45.7803 26.8501C45.9803 25.2701 46.5203 23.6501 48.2503 22.9101C48.4303 22.8301 48.7003 22.8001 48.8603 22.8801C48.9703 22.9401 49.0403 23.2601 48.9803 23.4101C48.3203 25.3401 48.8003 27.3501 48.5903 29.3201C48.4403 30.7801 48.4803 32.2601 48.4703 33.7201C48.4703 34.5001 48.6503 34.6401 49.4303 34.6501C50.4503 34.6601 51.4803 34.6501 52.5003 34.6501C52.5403 34.6401 52.5403 34.6301 52.5403 34.6201Z" fill="white"/>
    <path d="M32.4907 47.74C32.4307 49.11 32.3007 50.47 32.4107 51.84C32.4107 51.89 32.4207 51.93 32.4307 51.97C32.5507 52.45 32.7107 53.41 32.0407 53.48C31.7307 53.51 31.3407 53.16 31.0607 52.9C30.9107 52.76 30.9007 52.45 30.8807 52.21C30.7307 49.95 30.5707 47.68 30.4807 45.42C30.4507 44.67 30.7907 43.88 30.9207 43.17C30.9807 42.84 30.7907 42.47 30.4807 42.35C29.8007 42.07 29.0607 41.99 28.3307 41.87C27.8807 41.8 27.1307 40.99 27.0807 40.5C27.0307 39.99 27.4007 39.49 28.0907 39.36C29.1007 39.16 30.0907 38.95 31.1307 39.48C32.3307 40.09 33.6207 40.16 34.9707 39.78C35.6807 39.58 36.4607 39.62 37.2107 39.63C37.7007 39.64 37.8407 39.97 37.6007 40.41C37.1207 41.26 36.4807 41.96 35.5707 42.38C35.2907 42.51 35.0007 42.67 34.7907 42.89C34.5607 43.13 34.2007 43.2 33.9107 43.06C33.2707 42.74 32.8607 42.97 32.7807 43.58" fill="white"/>
    <path d="M38.7002 47.2301C38.7102 45.1901 39.9402 44.0001 41.5902 44.2101C42.0902 44.2701 42.3602 44.7201 42.1802 45.1901C42.0702 45.4801 41.9602 45.8101 41.9602 46.1201C41.9602 48.2301 41.9902 50.3401 42.0102 52.4501C42.0202 53.0301 41.6202 53.3401 41.1502 53.5201C40.6302 53.7201 40.1802 53.4801 39.9702 53.0301C39.6202 52.2901 39.2702 51.5201 39.1202 50.7301C38.8902 49.5101 38.8202 48.2601 38.7002 47.2301Z" fill="white"/>
    <path d="M38.8408 40.5202C38.8508 39.6202 39.3808 39.0502 40.2208 39.0602C41.0808 39.0702 41.6408 39.4802 41.6208 40.0702C41.5908 40.8802 40.7108 41.7602 39.9208 41.7702C39.2708 41.7802 38.8408 41.2802 38.8408 40.5202Z" fill="white"/>
    <path d="M61.8409 25.8101C61.7009 27.0701 59.0409 28.7401 58.1309 28.2401C59.4009 27.4001 60.6209 26.6101 61.8409 25.8101Z" fill="white"/>
    <path d="M65.7206 35.3901C65.4506 35.5201 65.3206 35.6301 65.1806 35.6401C64.1706 35.7301 63.1506 35.8101 62.1406 35.8501C61.9006 35.8601 61.6306 35.7101 61.4006 35.5901C61.3206 35.5501 61.2706 35.3601 61.2806 35.2501C61.2806 35.1901 61.4406 35.1001 61.5306 35.1001C62.7906 35.1101 64.0506 35.1401 65.3206 35.1701C65.4106 35.1801 65.5006 35.2701 65.7206 35.3901Z" fill="white"/>
    <path d="M23.9004 70.25L23.3504 71.09C23.6504 71.21 24.2904 71.8 24.3304 72.38C24.6504 72.2 26.1804 71.49 26.2704 71.48C26.4904 71.44 26.6004 71.67 26.6404 71.9C26.6504 71.93 24.9504 72.89 24.3804 73.27C23.9504 74.66 23.5504 75.36 22.7104 76.74C21.8704 78.13 20.0304 80 19.2704 80.18C18.6104 80.34 18.2304 79.86 18.1604 79.45C17.6904 76.54 21.0704 74.55 23.4304 72.91C23.4504 72.71 23.3404 72.44 23.3104 72.29C23.3004 72.25 23.0204 71.93 22.6904 71.78C22.4504 71.66 22.3304 71.59 22.3004 71.43C22.2904 71.29 22.5404 71.03 22.9704 70.38C23.3004 69.89 23.6304 69.24 23.5704 68.82C23.5304 68.64 23.3504 68.4 23.1704 68.44C22.8804 68.5 22.6204 68.66 22.2004 69.03C21.5504 69.62 20.9904 70.19 20.7304 70.22C20.4304 70.26 20.2704 70.16 20.2204 69.88C20.1904 69.52 21.3904 68.59 21.6904 68.33C22.1904 67.91 22.9504 67.56 23.1404 67.52C23.7504 67.4 24.2804 67.95 24.3604 68.6C24.4104 69.16 24.1304 69.91 23.9004 70.25ZM23.3204 73.9C22.5704 74.38 18.6904 76.93 19.0404 79.1C19.0604 79.28 19.1304 79.25 19.2904 79.22C19.5604 79.17 21.1004 77.68 21.8004 76.7C22.5104 75.7 23.0304 74.59 23.3204 73.9Z" fill="black" stroke="black" stroke-width="0.35" stroke-miterlimit="10" stroke-linecap="round" stroke-linejoin="round"/>
    <path d="M23.9004 70.25L23.3504 71.09C23.6504 71.21 24.2904 71.8 24.3304 72.38C24.6504 72.2 26.1804 71.49 26.2704 71.48C26.4904 71.44 26.6004 71.67 26.6404 71.9C26.6504 71.93 24.9504 72.89 24.3804 73.27C23.9504 74.66 23.5504 75.36 22.7104 76.74C21.8704 78.13 20.0304 80 19.2704 80.18C18.6104 80.34 18.2304 79.86 18.1604 79.45C17.6904 76.54 21.0704 74.55 23.4304 72.91C23.4504 72.71 23.3404 72.44 23.3104 72.29C23.3004 72.25 23.0204 71.93 22.6904 71.78C22.4504 71.66 22.3304 71.59 22.3004 71.43C22.2904 71.29 22.5404 71.03 22.9704 70.38C23.3004 69.89 23.6304 69.24 23.5704 68.82C23.5304 68.64 23.3504 68.4 23.1704 68.44C22.8804 68.5 22.6204 68.66 22.2004 69.03C21.5504 69.62 20.9904 70.19 20.7304 70.22C20.4304 70.26 20.2704 70.16 20.2204 69.88C20.1904 69.52 21.3904 68.59 21.6904 68.33C22.1904 67.91 22.9504 67.56 23.1404 67.52C23.7504 67.4 24.2804 67.95 24.3604 68.6C24.4104 69.16 24.1304 69.91 23.9004 70.25ZM23.3204 73.9C22.5704 74.38 18.6904 76.93 19.0404 79.1C19.0604 79.28 19.1304 79.25 19.2904 79.22C19.5604 79.17 21.1004 77.68 21.8004 76.7C22.5104 75.7 23.0304 74.59 23.3204 73.9Z" fill="black" stroke="black" stroke-width="0.35" stroke-miterlimit="10" stroke-linecap="round" stroke-linejoin="round"/>
    <path d="M31.9408 71.53C31.4608 72.11 30.9908 72.45 30.5308 72.54C30.1508 72.62 29.8608 72.57 29.6608 72.39C29.5208 72.25 29.4308 72.07 29.3908 71.85C29.3308 71.54 29.3608 71.09 29.4208 70.7L28.1808 72.23C27.6408 72.84 27.1608 73.18 26.7608 73.26C26.3608 73.34 25.9908 73.06 25.9308 72.78C25.8908 72.56 26.0508 72.08 26.4108 71.35C26.7708 70.62 27.2008 69.94 27.6708 69.29C28.1208 68.7 28.4308 68.3 28.6108 68.08C29.2408 67.33 29.7608 66.9 30.1408 66.83C30.4208 66.77 30.6908 66.81 30.9308 66.95C31.1308 66.79 31.3208 66.51 31.4208 66.49C31.6608 66.44 31.8008 66.55 31.8608 66.83C31.8808 66.93 31.8408 67.1 31.7408 67.28L31.3508 67.95C30.9708 68.59 30.7108 69.13 30.5308 69.55C30.2508 70.22 30.1508 70.76 30.2408 71.19C30.2908 71.43 30.3808 71.59 30.5608 71.56C30.9608 71.48 31.3908 71.12 31.8608 70.48L32.6308 69.41C32.6708 69.36 32.7108 69.33 32.7508 69.32C32.9108 69.29 33.0208 69.37 33.0608 69.58C33.0908 69.76 33.0608 69.89 32.9208 70.1C32.3108 70.99 31.9908 71.47 31.9408 71.53ZM29.9008 68.26C29.8808 68.17 29.8408 68.13 29.7708 68.15C29.4908 68.21 28.9608 68.8 28.2108 69.93C27.4508 71.06 27.1308 71.68 27.2608 71.79C27.3908 71.9 27.8408 71.46 28.6108 70.5C29.3808 69.52 29.8108 68.88 29.8908 68.61C29.9208 68.49 29.9308 68.38 29.9008 68.26Z" fill="black" stroke="black" stroke-width="0.35" stroke-miterlimit="10" stroke-linecap="round" stroke-linejoin="round"/>
    <path d="M31.9408 71.53C31.4608 72.11 30.9908 72.45 30.5308 72.54C30.1508 72.62 29.8608 72.57 29.6608 72.39C29.5208 72.25 29.4308 72.07 29.3908 71.85C29.3308 71.54 29.3608 71.09 29.4208 70.7L28.1808 72.23C27.6408 72.84 27.1608 73.18 26.7608 73.26C26.3608 73.34 25.9908 73.06 25.9308 72.78C25.8908 72.56 26.0508 72.08 26.4108 71.35C26.7708 70.62 27.2008 69.94 27.6708 69.29C28.1208 68.7 28.4308 68.3 28.6108 68.08C29.2408 67.33 29.7608 66.9 30.1408 66.83C30.4208 66.77 30.6908 66.81 30.9308 66.95C31.1308 66.79 31.3208 66.51 31.4208 66.49C31.6608 66.44 31.8008 66.55 31.8608 66.83C31.8808 66.93 31.8408 67.1 31.7408 67.28L31.3508 67.95C30.9708 68.59 30.7108 69.13 30.5308 69.55C30.2508 70.22 30.1508 70.76 30.2408 71.19C30.2908 71.43 30.3808 71.59 30.5608 71.56C30.9608 71.48 31.3908 71.12 31.8608 70.48L32.6308 69.41C32.6708 69.36 32.7108 69.33 32.7508 69.32C32.9108 69.29 33.0208 69.37 33.0608 69.58C33.0908 69.76 33.0608 69.89 32.9208 70.1C32.3108 70.99 31.9908 71.47 31.9408 71.53ZM29.9008 68.26C29.8808 68.17 29.8408 68.13 29.7708 68.15C29.4908 68.21 28.9608 68.8 28.2108 69.93C27.4508 71.06 27.1308 71.68 27.2608 71.79C27.3908 71.9 27.8408 71.46 28.6108 70.5C29.3808 69.52 29.8108 68.88 29.8908 68.61C29.9208 68.49 29.9308 68.38 29.9008 68.26Z" fill="black" stroke="black" stroke-width="0.35" stroke-miterlimit="10" stroke-linecap="round" stroke-linejoin="round"/>
    <path d="M36.7402 69.54C36.1302 70.2 35.6202 70.7 35.2102 71.04C34.5602 71.55 33.9602 71.87 33.4302 71.97C32.8402 72.09 32.2502 71.76 32.1302 71.12C32.0702 70.81 32.1902 70.27 32.5002 69.51C32.8402 68.69 33.2502 68.01 33.7302 67.46C34.0902 67.04 34.5102 66.66 34.9602 66.33C35.4302 65.98 35.7902 65.78 36.0502 65.73C36.5702 65.63 36.6802 65.73 36.7402 66.02C36.7702 66.15 36.7302 66.28 36.6102 66.38C36.4102 66.59 35.7102 66.8 35.1202 67.29C34.7702 67.59 34.4102 67.97 34.0902 68.43C33.8102 68.81 33.5802 69.25 33.3702 69.74C33.1602 70.23 33.0702 70.56 33.1202 70.78C33.1502 70.94 33.2902 71.02 33.5202 70.99C33.9902 70.9 34.5702 70.55 35.2302 69.95C35.4502 69.75 35.7802 69.41 36.2602 68.94C36.5002 68.69 36.8302 68.34 36.9702 68.32C37.1602 68.28 37.2802 68.34 37.3102 68.47C37.3602 68.77 37.1502 69.1 36.7402 69.54Z" fill="black" stroke="black" stroke-width="0.35" stroke-miterlimit="10" stroke-linecap="round" stroke-linejoin="round"/>
    <path d="M36.7402 69.54C36.1302 70.2 35.6202 70.7 35.2102 71.04C34.5602 71.55 33.9602 71.87 33.4302 71.97C32.8402 72.09 32.2502 71.76 32.1302 71.12C32.0702 70.81 32.1902 70.27 32.5002 69.51C32.8402 68.69 33.2502 68.01 33.7302 67.46C34.0902 67.04 34.5102 66.66 34.9602 66.33C35.4302 65.98 35.7902 65.78 36.0502 65.73C36.5702 65.63 36.6802 65.73 36.7402 66.02C36.7702 66.15 36.7302 66.28 36.6102 66.38C36.4102 66.59 35.7102 66.8 35.1202 67.29C34.7702 67.59 34.4102 67.97 34.0902 68.43C33.8102 68.81 33.5802 69.25 33.3702 69.74C33.1602 70.23 33.0702 70.56 33.1202 70.78C33.1502 70.94 33.2902 71.02 33.5202 70.99C33.9902 70.9 34.5702 70.55 35.2302 69.95C35.4502 69.75 35.7802 69.41 36.2602 68.94C36.5002 68.69 36.8302 68.34 36.9702 68.32C37.1602 68.28 37.2802 68.34 37.3102 68.47C37.3602 68.77 37.1502 69.1 36.7402 69.54Z" fill="black" stroke="black" stroke-width="0.35" stroke-miterlimit="10" stroke-linecap="round" stroke-linejoin="round"/>
    <path d="M37.1609 69.1799C37.1609 69.3199 36.8609 69.9099 36.9009 70.1399C36.9509 70.3799 36.9609 70.4499 37.1409 70.4199C37.4909 70.3499 37.9209 70.0299 38.9109 68.5099C39.2509 67.9099 39.5409 67.1899 40.2009 66.1199C40.6809 65.3699 41.3309 64.8399 41.4909 64.8099C41.6509 64.7799 41.8609 64.8899 41.8909 65.0499C41.9709 65.4799 41.7809 66.1099 41.6609 66.6299L41.3909 67.7999C41.2809 68.2699 41.0509 69.2599 41.0609 69.3099C41.1009 69.4999 41.1709 69.5799 41.2909 69.5599C41.5109 69.3799 41.8109 69.1499 42.0509 68.8299L43.0909 67.5699C43.8109 66.6899 44.3009 65.2499 45.1409 65.0799C45.3009 65.0499 45.3909 65.1099 45.4209 65.2699C45.5009 65.6999 45.2709 66.2799 45.1209 66.7799L44.7609 67.9699C44.6109 68.4299 44.4909 68.8799 44.5009 68.9199C44.5409 69.1099 44.6109 69.1899 44.7209 69.1699C44.8209 69.1499 45.2409 68.7799 45.7709 68.3399C46.2909 67.8799 46.5909 67.6599 46.6309 67.6499C46.7709 67.6099 46.8609 67.6599 46.9009 67.8599C46.9409 68.0799 46.6009 68.5299 45.8609 69.1799C45.1109 69.8299 44.8709 70.1299 44.4709 70.2099C44.0909 70.2899 43.7709 69.9499 43.6809 69.6499C43.5309 69.0999 43.8209 68.2699 44.1609 67.3499C43.6809 67.9499 43.3009 68.5799 42.4709 69.4899C41.8009 70.2199 41.4209 70.5299 41.0209 70.5999C40.6409 70.6799 40.3109 70.3399 40.2309 70.0399C40.1709 69.7899 40.3609 68.6699 40.4409 68.2399C40.5109 67.8999 40.7309 67.0799 40.8709 66.5499L39.5909 68.8999C38.6909 70.5499 37.9309 71.0399 37.0809 71.2299C36.5209 71.3499 36.1609 70.9699 36.1009 70.6399C36.0209 70.2299 36.2409 68.9399 36.8009 68.8299C37.0709 68.7499 37.1709 69.0399 37.1609 69.1799Z" fill="black" stroke="black" stroke-width="0.35" stroke-miterlimit="10" stroke-linecap="round" stroke-linejoin="round"/>
    <path d="M37.1609 69.1799C37.1609 69.3199 36.8609 69.9099 36.9009 70.1399C36.9509 70.3799 36.9609 70.4499 37.1409 70.4199C37.4909 70.3499 37.9209 70.0299 38.9109 68.5099C39.2509 67.9099 39.5409 67.1899 40.2009 66.1199C40.6809 65.3699 41.3309 64.8399 41.4909 64.8099C41.6509 64.7799 41.8609 64.8899 41.8909 65.0499C41.9709 65.4799 41.7809 66.1099 41.6609 66.6299L41.3909 67.7999C41.2809 68.2699 41.0509 69.2599 41.0609 69.3099C41.1009 69.4999 41.1709 69.5799 41.2909 69.5599C41.5109 69.3799 41.8109 69.1499 42.0509 68.8299L43.0909 67.5699C43.8109 66.6899 44.3009 65.2499 45.1409 65.0799C45.3009 65.0499 45.3909 65.1099 45.4209 65.2699C45.5009 65.6999 45.2709 66.2799 45.1209 66.7799L44.7609 67.9699C44.6109 68.4299 44.4909 68.8799 44.5009 68.9199C44.5409 69.1099 44.6109 69.1899 44.7209 69.1699C44.8209 69.1499 45.2409 68.7799 45.7709 68.3399C46.2909 67.8799 46.5909 67.6599 46.6309 67.6499C46.7709 67.6099 46.8609 67.6599 46.9009 67.8599C46.9409 68.0799 46.6009 68.5299 45.8609 69.1799C45.1109 69.8299 44.8709 70.1299 44.4709 70.2099C44.0909 70.2899 43.7709 69.9499 43.6809 69.6499C43.5309 69.0999 43.8209 68.2699 44.1609 67.3499C43.6809 67.9499 43.3009 68.5799 42.4709 69.4899C41.8009 70.2199 41.4209 70.5299 41.0209 70.5999C40.6409 70.6799 40.3109 70.3399 40.2309 70.0399C40.1709 69.7899 40.3609 68.6699 40.4409 68.2399C40.5109 67.8999 40.7309 67.0799 40.8709 66.5499L39.5909 68.8999C38.6909 70.5499 37.9309 71.0399 37.0809 71.2299C36.5209 71.3499 36.1609 70.9699 36.1009 70.6399C36.0209 70.2299 36.2409 68.9399 36.8009 68.8299C37.0709 68.7499 37.1709 69.0399 37.1609 69.1799Z" fill="black" stroke="black" stroke-width="0.35" stroke-miterlimit="10" stroke-linecap="round" stroke-linejoin="round"/>
    <path d="M52.4301 67.4799C51.9501 68.0599 51.4801 68.3999 51.0201 68.4899C50.6401 68.5699 50.3501 68.5099 50.1501 68.3399C50.0101 68.1999 49.9201 68.0199 49.8801 67.7999C49.8201 67.4899 49.8501 67.0399 49.9101 66.6399L48.6701 68.1699C48.1301 68.7799 47.6501 69.1199 47.2501 69.1999C46.8501 69.2799 46.4801 68.9999 46.4201 68.7199C46.3801 68.4999 46.5401 68.0199 46.9001 67.2899C47.2601 66.5599 47.6901 65.8799 48.1601 65.2299C48.6101 64.6399 48.9201 64.2399 49.1001 64.0199C49.7301 63.2699 50.2501 62.8399 50.6301 62.7699C50.9101 62.7099 51.1801 62.7499 51.4201 62.8899C51.6201 62.7299 51.8101 62.4499 51.9101 62.4299C52.1501 62.3799 52.2901 62.4899 52.3501 62.7699C52.3701 62.8699 52.3301 63.0399 52.2301 63.2199L51.8401 63.8899C51.4601 64.5299 51.2001 65.0699 51.0201 65.4899C50.7401 66.1599 50.6401 66.6999 50.7301 67.1299C50.7801 67.3699 50.8701 67.5299 51.0501 67.4999C51.4501 67.4199 51.8801 67.0599 52.3501 66.4199L53.1201 65.3499C53.1601 65.2999 53.2001 65.2699 53.2401 65.2599C53.4001 65.2299 53.5101 65.3099 53.5501 65.5199C53.5801 65.6999 53.5501 65.8299 53.4101 66.0399C52.8001 66.9499 52.4801 67.4299 52.4301 67.4799ZM50.3901 64.2199C50.3701 64.1299 50.3301 64.0899 50.2601 64.1099C49.9801 64.1699 49.4501 64.7599 48.7001 65.8899C47.9401 67.0199 47.6201 67.6299 47.7501 67.7499C47.8801 67.8599 48.3301 67.4199 49.1001 66.4599C49.8701 65.4799 50.3001 64.8399 50.3801 64.5699C50.4101 64.4499 50.4201 64.3399 50.3901 64.2199Z" fill="black" stroke="black" stroke-width="0.35" stroke-miterlimit="10" stroke-linecap="round" stroke-linejoin="round"/>
    <path d="M52.4301 67.4799C51.9501 68.0599 51.4801 68.3999 51.0201 68.4899C50.6401 68.5699 50.3501 68.5099 50.1501 68.3399C50.0101 68.1999 49.9201 68.0199 49.8801 67.7999C49.8201 67.4899 49.8501 67.0399 49.9101 66.6399L48.6701 68.1699C48.1301 68.7799 47.6501 69.1199 47.2501 69.1999C46.8501 69.2799 46.4801 68.9999 46.4201 68.7199C46.3801 68.4999 46.5401 68.0199 46.9001 67.2899C47.2601 66.5599 47.6901 65.8799 48.1601 65.2299C48.6101 64.6399 48.9201 64.2399 49.1001 64.0199C49.7301 63.2699 50.2501 62.8399 50.6301 62.7699C50.9101 62.7099 51.1801 62.7499 51.4201 62.8899C51.6201 62.7299 51.8101 62.4499 51.9101 62.4299C52.1501 62.3799 52.2901 62.4899 52.3501 62.7699C52.3701 62.8699 52.3301 63.0399 52.2301 63.2199L51.8401 63.8899C51.4601 64.5299 51.2001 65.0699 51.0201 65.4899C50.7401 66.1599 50.6401 66.6999 50.7301 67.1299C50.7801 67.3699 50.8701 67.5299 51.0501 67.4999C51.4501 67.4199 51.8801 67.0599 52.3501 66.4199L53.1201 65.3499C53.1601 65.2999 53.2001 65.2699 53.2401 65.2599C53.4001 65.2299 53.5101 65.3099 53.5501 65.5199C53.5801 65.6999 53.5501 65.8299 53.4101 66.0399C52.8001 66.9499 52.4801 67.4299 52.4301 67.4799ZM50.3901 64.2199C50.3701 64.1299 50.3301 64.0899 50.2601 64.1099C49.9801 64.1699 49.4501 64.7599 48.7001 65.8899C47.9401 67.0199 47.6201 67.6299 47.7501 67.7499C47.8801 67.8599 48.3301 67.4199 49.1001 66.4599C49.8701 65.4799 50.3001 64.8399 50.3801 64.5699C50.4101 64.4499 50.4201 64.3399 50.3901 64.2199Z" fill="black" stroke="black" stroke-width="0.35" stroke-miterlimit="10" stroke-linecap="round" stroke-linejoin="round"/>
    <path d="M58.2206 63.32L56.3106 65.05C56.6606 65.49 57.0906 65.89 57.5806 66.26C57.9606 66.54 58.1506 66.73 58.1806 66.86C58.2206 67.08 58.1606 67.2 57.9806 67.24C57.6406 67.31 57.2706 67.21 56.8706 66.97C56.4106 66.68 56.0106 66.25 55.6406 65.73C54.2606 67.18 53.5406 67.92 53.2606 67.98C52.8606 68.06 52.7706 67.85 52.6806 67.39C52.6106 67.05 52.8106 66.28 53.2806 65.05C53.8906 63.4 54.6906 61.85 55.0706 61.29C55.4606 60.72 55.7206 60.4 55.9306 60.36C56.1206 60.32 56.2106 60.46 56.2606 60.74C56.2806 60.81 56.2506 61.14 55.8406 61.8C55.2806 62.71 54.6606 63.73 54.0306 65.44L53.7206 66.36C54.1006 66.09 54.5706 65.67 55.1206 65.15C55.5706 64.71 55.9206 64.38 56.1506 64.16L58.3206 62.11C59.0306 61.43 59.4306 61.08 59.5406 61.06C59.7606 61.02 59.8806 61.07 59.9106 61.2C59.9906 61.64 59.6106 62.07 58.2206 63.32Z" fill="black" stroke="black" stroke-width="0.35" stroke-miterlimit="10" stroke-linecap="round" stroke-linejoin="round"/>
    <path d="M58.2206 63.32L56.3106 65.05C56.6606 65.49 57.0906 65.89 57.5806 66.26C57.9606 66.54 58.1506 66.73 58.1806 66.86C58.2206 67.08 58.1606 67.2 57.9806 67.24C57.6406 67.31 57.2706 67.21 56.8706 66.97C56.4106 66.68 56.0106 66.25 55.6406 65.73C54.2606 67.18 53.5406 67.92 53.2606 67.98C52.8606 68.06 52.7706 67.85 52.6806 67.39C52.6106 67.05 52.8106 66.28 53.2806 65.05C53.8906 63.4 54.6906 61.85 55.0706 61.29C55.4606 60.72 55.7206 60.4 55.9306 60.36C56.1206 60.32 56.2106 60.46 56.2606 60.74C56.2806 60.81 56.2506 61.14 55.8406 61.8C55.2806 62.71 54.6606 63.73 54.0306 65.44L53.7206 66.36C54.1006 66.09 54.5706 65.67 55.1206 65.15C55.5706 64.71 55.9206 64.38 56.1506 64.16L58.3206 62.11C59.0306 61.43 59.4306 61.08 59.5406 61.06C59.7606 61.02 59.8806 61.07 59.9106 61.2C59.9906 61.64 59.6106 62.07 58.2206 63.32Z" fill="black" stroke="black" stroke-width="0.35" stroke-miterlimit="10" stroke-linecap="round" stroke-linejoin="round"/>
    <path d="M64.2404 62.32C63.9504 63.2 63.7504 63.89 63.5904 64.38C63.3104 65.23 63.0504 65.91 62.7904 66.47C62.4104 67.34 61.9304 68.16 61.3404 68.9C60.4604 70.05 59.5504 70.79 58.5904 71.05C58.1404 71.18 56.9804 71.83 56.8804 71.43C56.8004 71.2 55.4804 69.7 55.8404 69.6C56.0104 69.55 56.1704 69.58 56.2904 69.72C56.4104 69.85 56.7204 68.73 56.9104 68.66C57.4904 68.5 58.2904 68.54 59.1104 67.42C60.0404 66.16 62.3604 65.7 62.6204 64.49L62.5704 64.45C62.0504 65.18 61.7104 65.63 61.5704 65.78C61.1204 66.28 60.6904 66.58 60.2404 66.72C59.8804 66.82 59.6104 66.81 59.4304 66.66C59.3304 66.54 59.2204 66.36 59.1504 66.12C59.0004 65.58 59.0704 64.83 59.3704 63.9C59.6304 63.11 59.9704 62.36 60.4104 61.61C60.8804 60.87 61.2004 60.49 61.4204 60.46C61.6504 60.45 61.7804 60.51 61.8304 60.68C61.8704 60.8 61.8204 60.94 61.7204 61.13L61.0504 62.21C60.7904 62.69 60.5304 63.31 60.2704 64.08C60.0204 64.85 59.9304 65.33 59.9904 65.51C60.0504 65.74 60.1004 65.75 60.3704 65.66C60.5304 65.61 60.7804 65.4 61.1204 65.02C61.2104 64.93 61.7904 64.2 62.8604 62.81C63.3704 61.3 63.9704 60.26 64.3704 60.15C64.7204 60.05 64.8804 60.23 64.9504 60.51C64.9904 60.65 64.7504 61.25 64.2404 62.32Z" fill="black" stroke="black" stroke-width="0.35" stroke-miterlimit="10" stroke-linecap="round" stroke-linejoin="round"/>
    <path d="M64.2404 62.32C63.9504 63.2 63.7504 63.89 63.5904 64.38C63.3104 65.23 63.0504 65.91 62.7904 66.47C62.4104 67.34 61.9304 68.16 61.3404 68.9C60.4604 70.05 59.5504 70.79 58.5904 71.05C58.1404 71.18 56.9804 71.83 56.8804 71.43C56.8004 71.2 55.4804 69.7 55.8404 69.6C56.0104 69.55 56.1704 69.58 56.2904 69.72C56.4104 69.85 56.7204 68.73 56.9104 68.66C57.4904 68.5 58.2904 68.54 59.1104 67.42C60.0404 66.16 62.3604 65.7 62.6204 64.49L62.5704 64.45C62.0504 65.18 61.7104 65.63 61.5704 65.78C61.1204 66.28 60.6904 66.58 60.2404 66.72C59.8804 66.82 59.6104 66.81 59.4304 66.66C59.3304 66.54 59.2204 66.36 59.1504 66.12C59.0004 65.58 59.0704 64.83 59.3704 63.9C59.6304 63.11 59.9704 62.36 60.4104 61.61C60.8804 60.87 61.2004 60.49 61.4204 60.46C61.6504 60.45 61.7804 60.51 61.8304 60.68C61.8704 60.8 61.8204 60.94 61.7204 61.13L61.0504 62.21C60.7904 62.69 60.5304 63.31 60.2704 64.08C60.0204 64.85 59.9304 65.33 59.9904 65.51C60.0504 65.74 60.1004 65.75 60.3704 65.66C60.5304 65.61 60.7804 65.4 61.1204 65.02C61.2104 64.93 61.7904 64.2 62.8604 62.81C63.3704 61.3 63.9704 60.26 64.3704 60.15C64.7204 60.05 64.8804 60.23 64.9504 60.51C64.9904 60.65 64.7504 61.25 64.2404 62.32Z" fill="black" stroke="black" stroke-width="0.35" stroke-miterlimit="10" stroke-linecap="round" stroke-linejoin="round"/>
    <path d="M66.8808 60.2299C66.8808 60.3999 66.7808 60.5699 66.6608 60.8899L66.4608 61.5099C66.2608 62.1899 65.9708 62.7699 65.8708 63.4999C65.8108 63.7299 65.7208 64.2099 65.7808 64.3799C65.8408 64.5099 65.8508 64.5699 66.0008 64.4799C66.0808 64.4299 66.8008 63.6899 67.0408 63.4299C67.6908 62.6999 68.4408 61.9299 68.7108 61.2599C68.8408 60.9899 68.9508 60.7499 69.0508 60.4999C69.1408 60.2699 69.2608 60.0299 69.3808 59.7699C69.4808 59.6699 69.5808 59.6199 69.6908 59.6199C69.8108 59.6099 69.9508 59.6899 70.0208 59.8299C70.1708 60.2999 69.9808 60.7299 69.8208 61.1299L69.6008 61.6299C69.4208 62.1299 69.0108 63.3699 69.0808 63.6599C69.1408 63.8799 69.2308 64.0399 69.3508 64.0099C69.6208 63.9099 70.2508 63.3899 70.5408 63.1199C70.6308 63.0099 70.7808 62.8599 70.8708 62.7599C71.1108 62.4999 71.3508 62.2399 71.4308 62.2399C71.6108 62.2399 71.7808 62.2299 71.8008 62.4899C71.8208 62.8799 71.4608 63.2499 71.3708 63.3299L70.9008 63.8399C70.4908 64.2399 69.8508 64.7499 69.4108 64.8399C68.7308 64.9699 68.4308 64.6799 68.2908 64.2699C68.2408 64.0999 68.1508 63.7099 68.1408 63.4599C67.8208 63.7799 67.7308 63.9399 67.3708 64.2999C67.1608 64.5599 66.0408 65.6499 65.7908 65.6999C65.4108 65.7799 64.9508 65.4699 64.8408 64.6899C64.6508 63.8199 65.4408 61.4899 65.6308 61.0099C65.7908 60.5899 66.0908 59.9399 66.4108 59.8899C66.5708 59.8499 66.9108 59.9099 66.8808 60.2299ZM68.5908 58.6999C67.7708 58.8799 66.7808 58.5199 66.7008 58.1199C66.6408 57.7999 66.7708 57.6899 67.0508 57.6399C67.1208 57.6299 67.2308 57.6799 67.3808 57.7599C67.6708 57.8899 68.0808 58.1099 68.4708 57.9999C69.0208 57.8499 69.5408 57.2199 69.9008 56.7699C70.0808 56.5299 70.2308 56.3499 70.3208 56.3299C70.5608 56.2799 70.6908 56.2599 70.7408 56.6199C70.7708 56.8899 70.0108 58.4099 68.5908 58.6999Z" fill="black" stroke="black" stroke-width="0.35" stroke-miterlimit="10" stroke-linecap="round" stroke-linejoin="round"/>
    <path d="M66.8808 60.2299C66.8808 60.3999 66.7808 60.5699 66.6608 60.8899L66.4608 61.5099C66.2608 62.1899 65.9708 62.7699 65.8708 63.4999C65.8108 63.7299 65.7208 64.2099 65.7808 64.3799C65.8408 64.5099 65.8508 64.5699 66.0008 64.4799C66.0808 64.4299 66.8008 63.6899 67.0408 63.4299C67.6908 62.6999 68.4408 61.9299 68.7108 61.2599C68.8408 60.9899 68.9508 60.7499 69.0508 60.4999C69.1408 60.2699 69.2608 60.0299 69.3808 59.7699C69.4808 59.6699 69.5808 59.6199 69.6908 59.6199C69.8108 59.6099 69.9508 59.6899 70.0208 59.8299C70.1708 60.2999 69.9808 60.7299 69.8208 61.1299L69.6008 61.6299C69.4208 62.1299 69.0108 63.3699 69.0808 63.6599C69.1408 63.8799 69.2308 64.0399 69.3508 64.0099C69.6208 63.9099 70.2508 63.3899 70.5408 63.1199C70.6308 63.0099 70.7808 62.8599 70.8708 62.7599C71.1108 62.4999 71.3508 62.2399 71.4308 62.2399C71.6108 62.2399 71.7808 62.2299 71.8008 62.4899C71.8208 62.8799 71.4608 63.2499 71.3708 63.3299L70.9008 63.8399C70.4908 64.2399 69.8508 64.7499 69.4108 64.8399C68.7308 64.9699 68.4308 64.6799 68.2908 64.2699C68.2408 64.0999 68.1508 63.7099 68.1408 63.4599C67.8208 63.7799 67.7308 63.9399 67.3708 64.2999C67.1608 64.5599 66.0408 65.6499 65.7908 65.6999C65.4108 65.7799 64.9508 65.4699 64.8408 64.6899C64.6508 63.8199 65.4408 61.4899 65.6308 61.0099C65.7908 60.5899 66.0908 59.9399 66.4108 59.8899C66.5708 59.8499 66.9108 59.9099 66.8808 60.2299ZM68.5908 58.6999C67.7708 58.8799 66.7808 58.5199 66.7008 58.1199C66.6408 57.7999 66.7708 57.6899 67.0508 57.6399C67.1208 57.6299 67.2308 57.6799 67.3808 57.7599C67.6708 57.8899 68.0808 58.1099 68.4708 57.9999C69.0208 57.8499 69.5408 57.2199 69.9008 56.7699C70.0808 56.5299 70.2308 56.3499 70.3208 56.3299C70.5608 56.2799 70.6908 56.2599 70.7408 56.6199C70.7708 56.8899 70.0108 58.4099 68.5908 58.6999Z" fill="black" stroke="black" stroke-width="0.35" stroke-miterlimit="10" stroke-linecap="round" stroke-linejoin="round"/>
    <path d="M73.6407 63.88C73.3007 63.95 72.9307 63.7 72.8607 63.36C72.8107 63.12 73.1307 62.82 73.4407 62.75C73.7907 62.68 74.2307 62.88 74.3007 63.22C74.3607 63.52 74.0107 63.81 73.6407 63.88ZM75.7307 55.53C75.6207 56.2 75.4507 56.86 75.2607 57.49C74.9407 58.52 74.7307 59.17 74.6307 59.42C74.3507 60.1 74.0907 60.48 73.8407 60.53C73.6207 60.57 73.5007 60.43 73.4507 60.24C73.4207 60.11 73.5407 59.67 73.7807 58.96C74.1807 57.81 74.4207 57.15 74.4607 56.97C74.5207 56.79 74.6507 56.14 74.8607 55.02C75.0007 54.3 75.1507 53.91 75.3207 53.86C75.5007 53.78 75.7907 53.89 75.8407 54.19C75.8807 54.41 75.8407 54.85 75.7307 55.53Z" fill="black" stroke="black" stroke-width="0.35" stroke-miterlimit="10" stroke-linecap="round" stroke-linejoin="round"/>
    <path d="M73.6407 63.88C73.3007 63.95 72.9307 63.7 72.8607 63.36C72.8107 63.12 73.1307 62.82 73.4407 62.75C73.7907 62.68 74.2307 62.88 74.3007 63.22C74.3607 63.52 74.0107 63.81 73.6407 63.88ZM75.7307 55.53C75.6207 56.2 75.4507 56.86 75.2607 57.49C74.9407 58.52 74.7307 59.17 74.6307 59.42C74.3507 60.1 74.0907 60.48 73.8407 60.53C73.6207 60.57 73.5007 60.43 73.4507 60.24C73.4207 60.11 73.5407 59.67 73.7807 58.96C74.1807 57.81 74.4207 57.15 74.4607 56.97C74.5207 56.79 74.6507 56.14 74.8607 55.02C75.0007 54.3 75.1507 53.91 75.3207 53.86C75.5007 53.78 75.7907 53.89 75.8407 54.19C75.8807 54.41 75.8407 54.85 75.7307 55.53Z" fill="black" stroke="black" stroke-width="0.35" stroke-miterlimit="10" stroke-linecap="round" stroke-linejoin="round"/>
    <path d="M22.7608 69.6902L22.2108 70.5302C22.5108 70.6502 23.1508 71.2402 23.1908 71.8202C23.5108 71.6402 25.0408 70.9302 25.1308 70.9202C25.3508 70.8802 25.4608 71.1102 25.5008 71.3402C25.5108 71.3702 23.8108 72.3302 23.2408 72.7102C22.8108 74.1002 22.4108 74.8002 21.5708 76.1802C20.7308 77.5702 18.8908 79.4402 18.1308 79.6202C17.4708 79.7802 17.0908 79.3002 17.0208 78.8902C16.5508 75.9802 19.9308 73.9902 22.2908 72.3502C22.3108 72.1502 22.2008 71.8802 22.1708 71.7302C22.1608 71.6902 21.8808 71.3702 21.5508 71.2202C21.3108 71.1002 21.1908 71.0302 21.1608 70.8702C21.1508 70.7302 21.4008 70.4702 21.8308 69.8202C22.1608 69.3302 22.4908 68.6802 22.4308 68.2602C22.3908 68.0802 22.2108 67.8402 22.0308 67.8802C21.7308 67.9402 21.4708 68.1002 21.0608 68.4702C20.4108 69.0602 19.8508 69.6302 19.5908 69.6602C19.2908 69.7002 19.1308 69.6002 19.0808 69.3202C19.0508 68.9602 20.2508 68.0302 20.5508 67.7702C21.0508 67.3502 21.8108 67.0002 22.0008 66.9602C22.6108 66.8402 23.1408 67.3902 23.2208 68.0402C23.2608 68.6102 22.9808 69.3502 22.7608 69.6902ZM22.1708 73.3502C21.4208 73.8302 17.5408 76.3802 17.8908 78.5502C17.9108 78.7302 17.9808 78.7002 18.1408 78.6702C18.4108 78.6202 19.9508 77.1302 20.6508 76.1502C21.3608 75.1402 21.8808 74.0302 22.1708 73.3502Z" fill="white"/>
    <path d="M30.7904 70.9701C30.3104 71.5501 29.8404 71.8901 29.3804 71.9801C29.0004 72.0601 28.7104 72.0101 28.5104 71.8301C28.3704 71.6901 28.2804 71.5101 28.2404 71.2901C28.1804 70.9801 28.2104 70.5301 28.2704 70.1401L27.0304 71.6701C26.4904 72.2801 26.0104 72.6201 25.6104 72.7001C25.2104 72.7801 24.8404 72.5001 24.7804 72.2201C24.7404 72.0001 24.9004 71.5201 25.2604 70.7901C25.6204 70.0601 26.0504 69.3801 26.5204 68.7301C26.9704 68.1401 27.2804 67.7401 27.4604 67.5201C28.0904 66.7701 28.6104 66.3401 28.9904 66.2701C29.2704 66.2101 29.5404 66.2501 29.7804 66.3901C29.9804 66.2301 30.1704 65.9501 30.2704 65.9301C30.5104 65.8801 30.6504 65.9901 30.7104 66.2701C30.7304 66.3701 30.6904 66.5401 30.5904 66.7201L30.2004 67.4001C29.8204 68.0401 29.5604 68.5801 29.3804 69.0001C29.1004 69.6701 29.0004 70.2101 29.0904 70.6401C29.1404 70.8801 29.2304 71.0401 29.4104 71.0101C29.8104 70.9301 30.2404 70.5701 30.7104 69.9301L31.4804 68.8601C31.5204 68.8101 31.5604 68.7801 31.6004 68.7701C31.7604 68.7401 31.8704 68.8201 31.9104 69.0301C31.9404 69.2101 31.9104 69.3401 31.7704 69.5501C31.1604 70.4401 30.8404 70.9201 30.7904 70.9701ZM28.7604 67.7101C28.7404 67.6201 28.7004 67.5801 28.6304 67.6001C28.3504 67.6601 27.8204 68.2501 27.0704 69.3801C26.3104 70.5101 25.9904 71.1301 26.1204 71.2401C26.2504 71.3501 26.7004 70.9101 27.4704 69.9501C28.2404 68.9701 28.6704 68.3301 28.7504 68.0601C28.7704 67.9401 28.7804 67.8301 28.7604 67.7101Z" fill="white"/>
    <path d="M35.6005 68.98C34.9905 69.64 34.4805 70.14 34.0705 70.48C33.4205 70.99 32.8205 71.31 32.2905 71.41C31.7005 71.53 31.1105 71.2 30.9905 70.56C30.9305 70.25 31.0505 69.71 31.3605 68.95C31.7005 68.13 32.1105 67.45 32.5905 66.9C32.9505 66.48 33.3705 66.1 33.8205 65.77C34.2905 65.42 34.6505 65.22 34.9105 65.17C35.4305 65.07 35.5405 65.17 35.6005 65.46C35.6305 65.59 35.5905 65.72 35.4705 65.82C35.2705 66.03 34.5705 66.24 33.9805 66.73C33.6305 67.03 33.2705 67.41 32.9505 67.87C32.6705 68.25 32.4405 68.69 32.2305 69.18C32.0205 69.67 31.9305 70 31.9805 70.23C32.0105 70.39 32.1505 70.47 32.3805 70.44C32.8505 70.35 33.4305 70 34.0905 69.4C34.3105 69.2 34.6405 68.86 35.1205 68.39C35.3605 68.14 35.6905 67.79 35.8305 67.77C36.0205 67.73 36.1405 67.79 36.1705 67.92C36.2105 68.22 36.0005 68.55 35.6005 68.98Z" fill="white"/>
    <path d="M36.0202 68.6201C36.0202 68.7601 35.7202 69.3501 35.7602 69.5801C35.8102 69.8201 35.8202 69.8901 36.0002 69.8601C36.3502 69.7901 36.7802 69.4701 37.7702 67.9501C38.1102 67.3501 38.4002 66.6301 39.0602 65.5601C39.5402 64.8101 40.1902 64.2801 40.3502 64.2501C40.5102 64.2201 40.7202 64.3301 40.7502 64.4901C40.8302 64.9201 40.6402 65.5501 40.5202 66.0701L40.2502 67.2401C40.1402 67.7101 39.9102 68.7001 39.9202 68.7501C39.9602 68.9401 40.0302 69.0201 40.1502 69.0001C40.3702 68.8201 40.6702 68.5901 40.9102 68.2701L41.9502 67.0101C42.6702 66.1301 43.1602 64.6901 44.0002 64.5201C44.1602 64.4901 44.2502 64.5501 44.2802 64.7101C44.3602 65.1401 44.1302 65.7201 43.9802 66.2201L43.6202 67.4101C43.4702 67.8701 43.3502 68.3201 43.3602 68.3601C43.4002 68.5501 43.4702 68.6301 43.5802 68.6101C43.6802 68.5901 44.1002 68.2201 44.6302 67.7801C45.1502 67.3201 45.4502 67.1001 45.4902 67.0901C45.6302 67.0501 45.7202 67.1001 45.7602 67.3001C45.8002 67.5201 45.4602 67.9701 44.7202 68.6201C43.9702 69.2701 43.7302 69.5701 43.3302 69.6501C42.9502 69.7301 42.6302 69.3901 42.5402 69.0901C42.3902 68.5401 42.6802 67.7101 43.0202 66.7901C42.5402 67.3901 42.1602 68.0201 41.3302 68.9301C40.6602 69.6601 40.2802 69.9701 39.8802 70.0401C39.5002 70.1201 39.1702 69.7801 39.0902 69.4801C39.0302 69.2301 39.2202 68.1101 39.3002 67.6801C39.3702 67.3401 39.5902 66.5201 39.7302 65.9901L38.4502 68.3401C37.5502 69.9901 36.7902 70.4801 35.9402 70.6701C35.3802 70.7901 35.0202 70.4101 34.9602 70.0801C34.8802 69.6701 35.1002 68.3801 35.6602 68.2701C35.9202 68.2001 36.0202 68.4801 36.0202 68.6201Z" fill="white"/>
    <path d="M51.2904 66.9301C50.8104 67.5101 50.3404 67.8501 49.8804 67.9401C49.5004 68.0201 49.2104 67.9601 49.0104 67.7901C48.8704 67.6501 48.7804 67.4701 48.7404 67.2501C48.6804 66.9401 48.7104 66.4901 48.7704 66.0901L47.5304 67.6201C46.9904 68.2301 46.5104 68.5701 46.1104 68.6501C45.7104 68.7301 45.3404 68.4501 45.2804 68.1701C45.2404 67.9501 45.4004 67.4701 45.7604 66.7401C46.1204 66.0101 46.5504 65.3301 47.0204 64.6801C47.4704 64.0901 47.7804 63.6901 47.9604 63.4701C48.5904 62.7201 49.1104 62.2901 49.4904 62.2201C49.7704 62.1601 50.0404 62.2001 50.2804 62.3401C50.4804 62.1801 50.6704 61.9001 50.7704 61.8801C51.0104 61.8301 51.1504 61.9401 51.2104 62.2201C51.2304 62.3201 51.1904 62.4901 51.0904 62.6701L50.7004 63.3401C50.3204 63.9801 50.0604 64.5201 49.8804 64.9401C49.6004 65.6101 49.5004 66.1501 49.5904 66.5801C49.6404 66.8201 49.7304 66.9801 49.9104 66.9501C50.3104 66.8701 50.7404 66.5101 51.2104 65.8701L51.9804 64.8001C52.0204 64.7501 52.0604 64.7201 52.1004 64.7101C52.2604 64.6801 52.3704 64.7601 52.4104 64.9701C52.4404 65.1501 52.4104 65.2801 52.2704 65.4901C51.6604 66.4001 51.3404 66.8701 51.2904 66.9301ZM49.2504 63.6701C49.2304 63.5801 49.1904 63.5401 49.1204 63.5601C48.8404 63.6201 48.3104 64.2101 47.5604 65.3401C46.8004 66.4701 46.4804 67.0801 46.6104 67.2001C46.7404 67.3101 47.1904 66.8701 47.9604 65.9101C48.7304 64.9301 49.1604 64.2901 49.2404 64.0201C49.2604 63.8901 49.2704 63.7901 49.2504 63.6701Z" fill="white"/>
    <path d="M57.0702 62.7699L55.1602 64.4999C55.5102 64.9399 55.9402 65.3399 56.4302 65.7099C56.8102 65.9899 57.0002 66.1799 57.0302 66.3099C57.0702 66.5299 57.0102 66.65 56.8302 66.6899C56.4902 66.76 56.1202 66.6599 55.7202 66.4199C55.2602 66.1299 54.8602 65.6999 54.4902 65.1799C53.1102 66.6299 52.3902 67.3699 52.1102 67.4299C51.7102 67.5099 51.6202 67.2999 51.5302 66.8399C51.4602 66.4999 51.6602 65.7299 52.1302 64.4999C52.7402 62.8499 53.5402 61.2999 53.9202 60.7399C54.3102 60.1699 54.5702 59.8499 54.7802 59.8099C54.9702 59.7699 55.0602 59.9099 55.1102 60.1899C55.1302 60.2599 55.1002 60.5899 54.6902 61.2499C54.1302 62.1599 53.5102 63.1799 52.8802 64.8899L52.5702 65.8099C52.9502 65.5399 53.4202 65.1199 53.9702 64.5999C54.4202 64.1599 54.7702 63.8299 55.0002 63.6099L57.1702 61.5599C57.8802 60.8799 58.2802 60.5299 58.3902 60.5099C58.6102 60.4699 58.7302 60.5199 58.7602 60.6499C58.8402 61.0899 58.4602 61.5099 57.0702 62.7699Z" fill="white"/>
    <path d="M63.0908 61.7602C62.8008 62.6402 62.6008 63.3302 62.4408 63.8202C62.1608 64.6702 61.9008 65.3502 61.6408 65.9102C61.2608 66.7802 60.7808 67.6002 60.1908 68.3402C59.3108 69.4902 58.4008 70.2302 57.4408 70.4902C56.9908 70.6202 56.4308 70.4302 56.3208 70.0302C56.2408 69.8002 56.2808 69.4402 56.6408 69.3402C56.8108 69.2902 56.9708 69.3202 57.0908 69.4602C57.2108 69.5902 57.3708 69.6302 57.5608 69.5702C58.1408 69.4102 58.8408 68.7602 59.6608 67.6402C60.5908 66.3802 61.1908 65.1502 61.4608 63.9302L61.4108 63.8902C60.8908 64.6202 60.5508 65.0702 60.4108 65.2202C59.9608 65.7202 59.5308 66.0202 59.0808 66.1602C58.7208 66.2602 58.4508 66.2502 58.2708 66.1002C58.1708 65.9802 58.0608 65.8002 57.9908 65.5602C57.8408 65.0202 57.9108 64.2702 58.2108 63.3402C58.4708 62.5502 58.8108 61.8002 59.2508 61.0502C59.7208 60.3102 60.0408 59.9302 60.2608 59.9002C60.4908 59.8902 60.6208 59.9502 60.6708 60.1202C60.7108 60.2402 60.6608 60.3802 60.5608 60.5702L59.8908 61.6502C59.6308 62.1302 59.3708 62.7502 59.1108 63.5202C58.8608 64.2902 58.7708 64.7702 58.8308 64.9502C58.8908 65.1802 58.9408 65.1902 59.2108 65.1002C59.3708 65.0502 59.6208 64.8402 59.9608 64.4602C60.0508 64.3702 60.6308 63.6402 61.7008 62.2502C62.2108 60.7402 62.8108 59.7002 63.2108 59.5902C63.5608 59.4902 63.7208 59.6702 63.7908 59.9502C63.8408 60.1002 63.6008 60.7002 63.0908 61.7602Z" fill="white"/>
    <path d="M65.7304 59.6801C65.7304 59.8501 65.6304 60.0201 65.5104 60.3401L65.3104 60.9601C65.1104 61.6401 64.8204 62.2201 64.7204 62.9501C64.6604 63.1801 64.5704 63.6601 64.6304 63.8301C64.6904 63.9601 64.7004 64.0201 64.8504 63.9301C64.9304 63.8801 65.6504 63.1401 65.8904 62.8801C66.5404 62.1501 67.2904 61.3801 67.5604 60.7101C67.6904 60.4401 67.8004 60.2001 67.9004 59.9501C67.9904 59.7201 68.1104 59.4801 68.2304 59.2201C68.3304 59.1201 68.4304 59.0701 68.5404 59.0701C68.6604 59.0601 68.8004 59.1401 68.8704 59.2801C69.0204 59.7501 68.8304 60.1801 68.6704 60.5801L68.4504 61.0801C68.2704 61.5801 67.8604 62.8201 67.9304 63.1101C67.9904 63.3301 68.0804 63.4901 68.2004 63.4601C68.4704 63.3601 69.1004 62.8401 69.3904 62.5701C69.4804 62.4601 69.6304 62.3101 69.7204 62.2101C69.9604 61.9501 70.2004 61.6901 70.2804 61.6901C70.4604 61.6901 70.6304 61.6801 70.6504 61.9401C70.6704 62.3301 70.3104 62.7001 70.2204 62.7801L69.7504 63.2901C69.3404 63.6901 68.7004 64.2001 68.2604 64.2901C67.5804 64.4201 67.2804 64.1301 67.1404 63.7201C67.0904 63.5501 67.0004 63.1601 66.9904 62.9101C66.6704 63.2301 66.5804 63.3901 66.2204 63.7501C66.0104 64.0101 64.8904 65.1001 64.6404 65.1501C64.2604 65.2301 63.8004 64.9201 63.6904 64.1401C63.5004 63.2701 64.2904 60.9401 64.4804 60.4601C64.6404 60.0401 64.9404 59.3901 65.2604 59.3401C65.4304 59.2901 65.7604 59.3501 65.7304 59.6801ZM67.4404 58.1501C66.6204 58.3301 65.6304 57.9701 65.5504 57.5701C65.4904 57.2501 65.6204 57.1401 65.9004 57.0901C65.9704 57.0801 66.0804 57.1301 66.2304 57.2101C66.5204 57.3401 66.9304 57.5601 67.3204 57.4501C67.8704 57.3001 68.3904 56.6701 68.7504 56.2201C68.9304 55.9801 69.0804 55.8001 69.1704 55.7801C69.4104 55.7301 69.5404 55.7101 69.5904 56.0701C69.6304 56.3401 68.8704 57.8501 67.4404 58.1501Z" fill="white"/>
    <path d="M72.4903 63.3302C72.1503 63.4002 71.7803 63.1502 71.7103 62.8102C71.6603 62.5702 71.9803 62.2702 72.2903 62.2002C72.6403 62.1302 73.0803 62.3302 73.1503 62.6702C73.2203 62.9702 72.8603 63.2502 72.4903 63.3302ZM74.5803 54.9802C74.4703 55.6502 74.3003 56.3102 74.1103 56.9402C73.7903 57.9702 73.5803 58.6202 73.4803 58.8702C73.2003 59.5502 72.9403 59.9302 72.6903 59.9802C72.4703 60.0202 72.3503 59.8802 72.3003 59.6902C72.2703 59.5602 72.3903 59.1202 72.6303 58.4102C73.0303 57.2602 73.2703 56.6002 73.3103 56.4202C73.3703 56.2402 73.5003 55.5902 73.7103 54.4702C73.8503 53.7502 74.0003 53.3602 74.1703 53.3102C74.3503 53.2302 74.6403 53.3402 74.6903 53.6402C74.7303 53.8602 74.6903 54.2902 74.5803 54.9802Z" fill="white"/>
  </g>
  <defs>
    <clipPath id="clip0_577_41719">
      <rect width="77" height="81" fill="white"/>
    </clipPath>
  </defs>
</svg>
