<svg width="24" height="24" viewBox="0 0 24 24" fill="none" xmlns="http://www.w3.org/2000/svg">
  <g clip-path="url(#clip0_310_4587)">
    <path d="M11.9998 0.675049C5.7373 0.675049 0.674805 5.73755 0.674805 12C0.674805 18.2626 5.7373 23.3625 11.9998 23.3625C18.2623 23.3625 23.3623 18.2626 23.3623 12C23.3623 5.73755 18.2623 0.675049 11.9998 0.675049ZM11.9998 21.675C6.67481 21.675 2.3623 17.325 2.3623 12C2.3623 6.67505 6.67481 2.36255 11.9998 2.36255C17.3248 2.36255 21.6748 6.71255 21.6748 12.0375C21.6748 17.325 17.3248 21.675 11.9998 21.675Z" fill="white"/>
    <path d="M15.075 6.3376C14.7375 6.0001 14.2125 6.0001 13.875 6.3376L8.925 11.4001C8.5875 11.7376 8.5875 12.2626 8.925 12.6001L13.875 17.6626C14.025 17.8126 14.25 17.9251 14.475 17.9251C14.7 17.9251 14.8875 17.8501 15.075 17.7001C15.4125 17.3626 15.4125 16.8376 15.075 16.5001L10.6875 12.0001L15.075 7.5376C15.4125 7.2001 15.4125 6.6376 15.075 6.3376Z" fill="white"/>
  </g>
  <defs>
    <clipPath id="clip0_310_4587">
      <rect width="24" height="24" fill="white"/>
    </clipPath>
  </defs>
</svg>
