<svg width="24" height="24" viewBox="0 0 24 24" fill="none" xmlns="http://www.w3.org/2000/svg">
  <path fill-rule="evenodd" clip-rule="evenodd" d="M3.40732 2.54465C4.57358 1.29803 6.32591 1.1001 8.08798 1.1001H15.1205C16.8826 1.1001 18.6349 1.29803 19.8012 2.54465C20.9318 3.7532 21.1089 5.53476 21.1089 7.38615V11.3489C21.1089 11.846 20.706 12.2489 20.2089 12.2489C19.7119 12.2489 19.3089 11.846 19.3089 11.3489V7.38615C19.3089 5.51 19.0854 4.41427 18.4867 3.77437C17.8927 3.13945 16.8775 2.9001 15.1205 2.9001H8.08798C6.33098 2.9001 5.31577 3.13945 4.72178 3.77437C4.12313 4.41427 3.89961 5.51 3.89961 7.38615V17.8606C3.89961 18.4629 3.98256 18.9353 4.12257 19.2786C4.26284 19.6226 4.45346 19.822 4.66221 19.9119C4.8693 20.0011 5.13343 19.9994 5.45765 19.8594C5.7803 19.7201 6.14927 19.4485 6.5467 19.0234C6.55189 19.0178 6.55716 19.0124 6.56248 19.0069L6.5688 19.0004C6.95806 18.59 7.48448 18.3456 8.05463 18.3773C8.62651 18.4091 9.1224 18.712 9.45928 19.1626C9.45937 19.1627 9.45946 19.1628 9.45955 19.163L9.94861 19.8167C10.0062 19.6564 10.1098 19.5107 10.2563 19.401C10.6543 19.1033 11.2183 19.1845 11.5161 19.5825C12.0447 20.2891 11.9004 21.2903 11.1939 21.8189L10.6907 21.1464L11.1939 21.8189C10.4874 22.3475 9.48613 22.2032 8.95754 21.4967L8.018 20.2409L8.01773 20.2405C7.98758 20.2002 7.96404 20.1831 7.95416 20.177C7.94316 20.1819 7.91408 20.1974 7.87387 20.2401L7.86526 20.2492L7.86519 20.2492L7.85496 20.2597C7.35606 20.7921 6.79313 21.2434 6.17113 21.512C5.52844 21.7894 4.73274 21.9022 3.95017 21.5651C3.17945 21.2332 2.71352 20.5902 2.45584 19.9584C2.19977 19.3305 2.09961 18.6079 2.09961 17.8606V7.38615C2.09961 5.53476 2.27669 3.7532 3.40732 2.54465Z" fill="black"/>
  <path fill-rule="evenodd" clip-rule="evenodd" d="M12.7979 17.7673C12.7979 15.2409 14.8459 13.1929 17.3723 13.1929C19.8987 13.1929 21.9467 15.2409 21.9467 17.7673C21.9467 20.2937 19.8987 22.3417 17.3723 22.3417C14.8459 22.3417 12.7979 20.2937 12.7979 17.7673ZM17.3723 14.9929C15.84 14.9929 14.5979 16.235 14.5979 17.7673C14.5979 19.2996 15.84 20.5417 17.3723 20.5417C18.9046 20.5417 20.1467 19.2996 20.1467 17.7673C20.1467 16.235 18.9045 14.9929 17.3723 14.9929Z" fill="black"/>
  <path fill-rule="evenodd" clip-rule="evenodd" d="M19.5722 19.6708C19.9237 19.3194 20.4935 19.3194 20.845 19.6708L21.7752 20.6011C22.1267 20.9525 22.1267 21.5224 21.7752 21.8739C21.4238 22.2253 20.8539 22.2253 20.5024 21.8739L19.5722 20.9436C19.2207 20.5922 19.2207 20.0223 19.5722 19.6708Z" fill="black"/>
  <path fill-rule="evenodd" clip-rule="evenodd" d="M6.9834 8.04673C6.9834 7.54967 7.38634 7.14673 7.8834 7.14673H15.3253C15.8223 7.14673 16.2253 7.54967 16.2253 8.04673C16.2253 8.54378 15.8223 8.94673 15.3253 8.94673H7.8834C7.38634 8.94673 6.9834 8.54378 6.9834 8.04673Z" fill="black"/>
  <path fill-rule="evenodd" clip-rule="evenodd" d="M7.91309 11.7674C7.91309 11.2704 8.31603 10.8674 8.81309 10.8674H14.3945C14.8915 10.8674 15.2945 11.2704 15.2945 11.7674C15.2945 12.2645 14.8915 12.6674 14.3945 12.6674H8.81309C8.31603 12.6674 7.91309 12.2645 7.91309 11.7674Z" fill="black"/>
</svg>
