<svg width="24" height="24" viewBox="0 0 24 24" fill="none" xmlns="http://www.w3.org/2000/svg">
  <path fill-rule="evenodd" clip-rule="evenodd" d="M9.44556 1.36282C9.79751 1.71381 9.7983 2.28366 9.44731 2.63562L5.82731 6.26562C5.47633 6.61757 4.90648 6.61836 4.55452 6.26737C4.20257 5.91638 4.20178 5.34654 4.55277 4.99458L8.17277 1.36458C8.52375 1.01262 9.0936 1.01184 9.44556 1.36282Z" fill="black"/>
  <path fill-rule="evenodd" clip-rule="evenodd" d="M14.5545 1.36282C14.9065 1.01184 15.4763 1.01262 15.8273 1.36458L19.4473 4.99458C19.7983 5.34654 19.7975 5.91638 19.4456 6.26737C19.0936 6.61836 18.5238 6.61757 18.1728 6.26562L14.5528 2.63562C14.2018 2.28366 14.2026 1.71381 14.5545 1.36282Z" fill="black"/>
  <path fill-rule="evenodd" clip-rule="evenodd" d="M3.1492 6.90421C3.1019 6.9359 2.89961 7.07292 2.89961 7.8502C2.89961 8.33052 2.95663 8.60022 3.0124 8.74372C3.05607 8.8561 3.09021 8.87294 3.09689 8.87623C3.09727 8.87642 3.09756 8.87656 3.09776 8.87668C3.12772 8.89394 3.21008 8.92705 3.41979 8.94246C3.58035 8.95426 3.74412 8.95303 3.95499 8.95145C4.03551 8.95085 4.12291 8.9502 4.21961 8.9502H19.7796C19.8763 8.9502 19.9637 8.95085 20.0442 8.95145C20.2551 8.95303 20.4189 8.95426 20.5794 8.94246C20.7891 8.92705 20.8715 8.89394 20.9015 8.87668C20.9017 8.87656 20.9019 8.87642 20.9023 8.87623C20.909 8.87294 20.9431 8.8561 20.9868 8.74372C21.0426 8.60022 21.0996 8.33052 21.0996 7.8502C21.0996 7.07292 20.8973 6.9359 20.85 6.90421C20.7059 6.80768 20.4222 6.7502 19.7796 6.7502H4.21961C3.57697 6.7502 3.29333 6.80768 3.1492 6.90421ZM2.14752 5.40868C2.80589 4.96771 3.63225 4.9502 4.21961 4.9502H19.7796C20.367 4.9502 21.1933 4.96771 21.8517 5.40868C22.6069 5.91449 22.8996 6.77747 22.8996 7.8502C22.8996 9.00717 22.6393 9.95264 21.8003 10.4362C21.429 10.6502 21.0332 10.714 20.7114 10.7376C20.4713 10.7553 20.2028 10.7531 19.9708 10.7513C19.9035 10.7507 19.8392 10.7502 19.7796 10.7502H4.21961C4.16001 10.7502 4.09576 10.7507 4.02844 10.7513C3.79639 10.7531 3.52792 10.7553 3.28787 10.7376C2.96601 10.714 2.57025 10.6502 2.19896 10.4362C1.35989 9.95264 1.09961 9.00717 1.09961 7.8502C1.09961 6.77747 1.39232 5.91449 2.14752 5.40868Z" fill="black"/>
  <path fill-rule="evenodd" clip-rule="evenodd" d="M14.3568 13.9001C14.2621 13.9001 14.1853 13.9768 14.1853 14.0715C14.1853 14.1662 14.2621 14.243 14.3568 14.243C14.4514 14.243 14.5282 14.1662 14.5282 14.0715C14.5282 13.9768 14.4514 13.9001 14.3568 13.9001ZM12.6023 13.1715C12.9293 12.5353 13.5922 12.1001 14.3568 12.1001C15.4455 12.1001 16.3282 12.9827 16.3282 14.0715C16.3282 15.1603 15.4455 16.043 14.3568 16.043C13.5922 16.043 12.9293 15.6077 12.6023 14.9715L8.99961 14.9715C8.50255 14.9715 8.09961 14.5686 8.09961 14.0715C8.09961 13.5745 8.50255 13.1715 8.99961 13.1715L12.6023 13.1715ZM10.071 17.7572C9.97636 17.7572 9.89961 17.834 9.89961 17.9287C9.89961 18.0233 9.97636 18.1001 10.071 18.1001C10.1657 18.1001 10.2425 18.0233 10.2425 17.9287C10.2425 17.834 10.1657 17.7572 10.071 17.7572ZM8.09961 17.9287C8.09961 16.8399 8.98225 15.9572 10.071 15.9572C10.8356 15.9572 11.4985 16.3925 11.8255 17.0287H15.4282C15.9252 17.0287 16.3282 17.4316 16.3282 17.9287C16.3282 18.4257 15.9252 18.8287 15.4282 18.8287H11.8255C11.4985 19.4649 10.8356 19.9001 10.071 19.9001C8.98225 19.9001 8.09961 19.0175 8.09961 17.9287Z" fill="black"/>
  <path fill-rule="evenodd" clip-rule="evenodd" d="M20.6693 9.11613C21.1574 9.20975 21.4773 9.68137 21.3836 10.1695L19.7037 18.9293C19.5274 19.8496 19.2911 20.9163 18.5371 21.7064C17.7445 22.5369 16.5576 22.9 14.8897 22.9H8.85975C7.28355 22.9 6.10743 22.5058 5.29184 21.6799C4.50164 20.8796 4.19053 19.8098 4.02175 18.7865L2.6115 10.145C2.53144 9.65441 2.86422 9.19183 3.35479 9.11177C3.84536 9.03171 4.30794 9.3645 4.388 9.85506L5.79775 18.4935C5.7977 18.4933 5.79779 18.4938 5.79775 18.4935C5.94896 19.4098 6.18297 20.0205 6.57265 20.4152C6.93706 20.7842 7.57594 21.1 8.85975 21.1H14.8897C16.3319 21.1 16.93 20.7831 17.2349 20.4637C17.5783 20.1038 17.752 19.5504 17.9358 18.5908L19.6159 9.83051C19.7095 9.34235 20.1811 9.02251 20.6693 9.11613Z" fill="black"/>
</svg>
