<svg width="24" height="24" viewBox="0 0 24 24" fill="none" xmlns="http://www.w3.org/2000/svg">
  <path fill-rule="evenodd" clip-rule="evenodd" d="M1.91187 4.10536C1.93019 4.13305 1.96756 4.17896 2.04131 4.24237C2.22208 4.39779 2.53632 4.57854 3.00288 4.74819C3.92859 5.08482 5.26709 5.31062 6.78908 5.31062C8.31108 5.31062 9.64958 5.08482 10.5753 4.74819C11.0418 4.57854 11.3561 4.39779 11.5369 4.24237C11.6106 4.17896 11.648 4.13305 11.6663 4.10536C11.648 4.07767 11.6106 4.03176 11.5369 3.96835C11.3561 3.81294 11.0418 3.63219 10.5753 3.46253C9.64958 3.12591 8.31108 2.9001 6.78908 2.9001C5.26709 2.9001 3.92859 3.12591 3.00288 3.46253C2.53632 3.63219 2.22208 3.81294 2.04131 3.96835C1.96756 4.03176 1.93019 4.07767 1.91187 4.10536ZM11.6786 6.24168C11.5211 6.31305 11.3577 6.37899 11.1904 6.43982C10.0208 6.86515 8.46453 7.11062 6.78908 7.11062C5.11364 7.11062 3.5574 6.86515 2.38774 6.43982C2.22045 6.37899 2.05709 6.31305 1.89961 6.24168V8.82131C1.91007 8.84243 1.94407 8.89562 2.04131 8.97921C2.22208 9.13463 2.53632 9.31538 3.00288 9.48503C3.92859 9.82166 5.26709 10.0475 6.78908 10.0475C8.31108 10.0475 9.64958 9.82166 10.5753 9.48503C11.0418 9.31538 11.3561 9.13463 11.5369 8.97921C11.6341 8.89562 11.6681 8.84243 11.6786 8.82131V6.24168ZM11.6786 10.9785C11.5211 11.0499 11.3577 11.1158 11.1904 11.1767C10.0208 11.602 8.46453 11.8475 6.78908 11.8475C5.11364 11.8475 3.5574 11.602 2.38774 11.1767C2.22045 11.1158 2.05709 11.0499 1.89961 10.9785V13.5582C1.91007 13.5793 1.94407 13.6325 2.04131 13.7161C2.22208 13.8715 2.53632 14.0522 3.00288 14.2219C3.92859 14.5585 5.26709 14.7843 6.78908 14.7843C7.88068 14.7843 8.88471 14.668 9.7117 14.4746C10.4499 14.302 10.9947 14.08 11.3356 13.8631C11.4397 13.6658 11.5543 13.4749 11.6786 13.291V10.9785ZM13.4786 11.5375V4.10536C13.4786 3.45369 13.1126 2.94925 12.7103 2.60344C12.3052 2.25512 11.7716 1.98222 11.1904 1.7709C10.0208 1.34557 8.46453 1.1001 6.78908 1.1001C5.11364 1.1001 3.5574 1.34557 2.38774 1.7709C1.80661 1.98222 1.273 2.25512 0.867844 2.60344C0.465614 2.94925 0.0996094 3.45369 0.0996094 4.10536V18.3159C0.0996094 18.9676 0.465614 19.472 0.867844 19.8178C1.273 20.1661 1.80661 20.439 2.38774 20.6503C3.5574 21.0757 5.11364 21.3211 6.78908 21.3211C8.04394 21.3211 9.22475 21.1836 10.2244 20.9396C10.8009 20.7989 11.3473 20.6157 11.8212 20.3852C12.9431 21.9104 14.7505 22.9001 16.7891 22.9001C20.1929 22.9001 22.9522 20.1408 22.9522 16.7369C22.9522 13.3331 20.1929 10.5738 16.7891 10.5738C15.5707 10.5738 14.4348 10.9273 13.4786 11.5375ZM10.6279 16.896C10.6448 17.5599 10.7666 18.1977 10.9774 18.7935C10.674 18.9349 10.2807 19.0731 9.79766 19.1909C8.95518 19.3965 7.91932 19.5212 6.78908 19.5212C5.26709 19.5212 3.92859 19.2953 3.00288 18.9587C2.53632 18.7891 2.22208 18.6083 2.04131 18.4529C1.94407 18.3693 1.91007 18.3161 1.89961 18.295V15.7154C2.05709 15.7867 2.22045 15.8527 2.38774 15.9135C3.5574 16.3388 5.11364 16.5843 6.78908 16.5843C8.0017 16.5843 9.14468 16.4558 10.1216 16.2273C10.3047 16.1845 10.4845 16.1376 10.6598 16.0865C10.6374 16.3002 10.6259 16.5172 10.6259 16.7369C10.6259 16.7901 10.6266 16.8432 10.6279 16.896ZM12.4259 16.7369C12.4259 19.1466 14.3794 21.1001 16.7891 21.1001C19.1988 21.1001 21.1522 19.1466 21.1522 16.7369C21.1522 14.3272 19.1988 12.3738 16.7891 12.3738C14.3794 12.3738 12.4259 14.3272 12.4259 16.7369Z" fill="black"/>
  <path d="M16.7662 19.8945C16.431 19.8945 16.137 19.8446 15.8841 19.7446C15.6372 19.6446 15.4284 19.5094 15.2579 19.3389C15.0932 19.1683 14.9668 18.9713 14.8786 18.7479C14.7963 18.5244 14.7551 18.2863 14.7551 18.0334C14.7551 17.9864 14.7551 17.9423 14.7551 17.9011C14.761 17.8599 14.7669 17.8188 14.7727 17.7776H14.1465V16.9838H15.0991L16.2369 16.384H14.1465V15.5901H17.3131C17.3425 15.5019 17.3572 15.4078 17.3572 15.3079C17.3572 15.055 17.2895 14.8727 17.1543 14.761C17.0249 14.6493 16.8397 14.5934 16.5986 14.5934C16.3869 14.5934 16.184 14.6375 15.99 14.7257C15.8018 14.808 15.6401 14.9256 15.5048 15.0785L14.8521 14.2582C15.0403 14.0407 15.2932 13.8642 15.6107 13.729C15.9341 13.5937 16.2811 13.5261 16.6515 13.5261C16.9514 13.5261 17.219 13.5702 17.4542 13.6584C17.6894 13.7466 17.8864 13.8672 18.0452 14.0201C18.2098 14.173 18.3333 14.3494 18.4156 14.5493C18.5038 14.7492 18.5479 14.958 18.5479 15.1756C18.5479 15.2402 18.545 15.3079 18.5391 15.3784C18.5332 15.449 18.5215 15.5196 18.5038 15.5901H19.1565V16.384H18.1069L17.0132 16.9838H19.1565V17.7776H15.9723C15.9547 17.8482 15.9459 17.9217 15.9459 17.9981C15.9459 18.2863 16.0223 18.5009 16.1752 18.642C16.334 18.7832 16.5486 18.8537 16.8191 18.8537C17.0249 18.8537 17.2219 18.8067 17.4101 18.7126C17.5983 18.6185 17.7982 18.4568 18.0099 18.2275L18.6802 19.0478C18.4744 19.2947 18.2098 19.4976 17.8864 19.6564C17.563 19.8152 17.1896 19.8945 16.7662 19.8945Z" fill="black"/>
</svg>
