<svg width="25" height="24" viewBox="0 0 25 24" fill="none" xmlns="http://www.w3.org/2000/svg">
  <path d="M18.5 20C18.5 21.1 19.4 22 20.5 22C21.6 22 22.5 21.1 22.5 20C22.5 18.9 21.6 18 20.5 18C19.4 18 18.5 18.9 18.5 20Z" fill="black"/>
  <path d="M7.5 20C7.5 21.1 8.4 22 9.5 22C10.6 22 11.5 21.1 11.5 20C11.5 18.9 10.6 18 9.5 18C8.4 18 7.5 18.9 7.5 20Z" fill="black"/>
  <path fill-rule="evenodd" clip-rule="evenodd" d="M9.36345 14.2456L9.42445 14.2944C9.57496 14.4148 9.76812 14.5 10.1 14.5H19.9C20.0163 14.5 20.1942 14.4781 20.3761 14.4242C20.4627 14.3985 20.5353 14.37 20.5913 14.3428C20.6187 14.3296 20.6394 14.3179 20.6542 14.3088C20.6614 14.3043 20.6668 14.3007 20.6704 14.2982C20.6722 14.2969 20.6735 14.296 20.6744 14.2953C20.6752 14.2947 20.6756 14.2944 20.6755 14.2944L20.7365 14.2456L20.8015 14.2023C21.0101 14.0633 21.0962 13.8987 21.1181 13.7454L21.1252 13.696L22.5444 6.6H7.46769L8.94669 13.56C9.08837 14.0325 9.21468 14.1465 9.29846 14.2023L9.36345 14.2456ZM7.2 14L5.5 6V5.9L4.7 2H1.5C0.9 2 0.5 1.6 0.5 1C0.5 0.4 0.9 0 1.5 0H5.5C5.74232 0 5.96115 0.0704609 6.13372 0.2C6.14779 0.210558 6.16155 0.221508 6.17499 0.232844C6.33689 0.369422 6.45241 0.562066 6.5 0.8L7.3 4.8H23.5C23.8 4.8 24.1 4.9 24.3 5.2C24.5 5.4 24.5 5.7 24.5 6L22.9 14C22.8 14.7 22.4 15.3 21.8 15.7C21.3 16.1 20.5 16.3 19.9 16.3H10.1C9.4 16.3 8.8 16.1 8.3 15.7C7.7 15.3 7.4 14.7 7.2 14Z" fill="black"/>
</svg>
