<svg width="24" height="24" viewBox="0 0 24 24" xmlns="http://www.w3.org/2000/svg">
  <g clip-path="url(#clip0_577_42056)">
    <path d="M4.99994 9.99984H6.9999C8.99986 9.99984 9.99984 8.99986 9.99984 6.9999V4.99994C9.99984 2.99998 8.99986 2 6.9999 2H4.99994C2.99998 2 2 2.99998 2 4.99994V6.9999C2 8.99986 2.99998 9.99984 4.99994 9.99984Z" fill="white"/>
    <path fill-rule="evenodd" clip-rule="evenodd" d="M2.14933 2.14885C2.86495 1.43323 3.86933 1.1499 5.00033 1.1499H7.00029C8.13129 1.1499 9.13567 1.43323 9.85129 2.14885C10.5669 2.86446 10.8502 3.86884 10.8502 4.99984V6.9998C10.8502 8.13081 10.5669 9.13518 9.85129 9.8508C9.13567 10.5664 8.13129 10.8497 7.00029 10.8497H5.00033C3.86933 10.8497 2.86495 10.5664 2.14933 9.8508C1.43372 9.13518 1.15039 8.13081 1.15039 6.9998V4.99984C1.15039 3.86884 1.43372 2.86446 2.14933 2.14885ZM3.35142 3.35093C3.06705 3.63529 2.85039 4.13089 2.85039 4.99984V6.9998C2.85039 7.86876 3.06705 8.36436 3.35142 8.64872C3.63578 8.93308 4.13137 9.14974 5.00033 9.14974H7.00029C7.86925 9.14974 8.36484 8.93308 8.6492 8.64872C8.93357 8.36436 9.15023 7.86876 9.15023 6.9998V4.99984C9.15023 4.13089 8.93357 3.63529 8.64920 3.35093C8.36484 3.06657 7.86925 2.8499 7.00029 2.8499H5.00033C4.13137 2.8499 3.63578 3.06657 3.35142 3.35093Z" fill="white"/>
    <path d="M16.999 9.99984H18.9989C20.9989 9.99984 21.9989 8.99986 21.9989 6.9999V4.99994C21.9989 2.99998 20.9989 2 18.9989 2H16.999C14.999 2 13.999 2.99998 13.999 4.99994V6.9999C13.999 8.99986 14.999 9.99984 16.999 9.99984Z" fill="white"/>
    <path fill-rule="evenodd" clip-rule="evenodd" d="M14.1474 2.14885C14.863 1.43323 15.8674 1.1499 16.9984 1.1499H18.9983C20.1293 1.1499 21.1337 1.43323 21.8493 2.14885C22.565 2.86446 22.8483 3.86884 22.8483 4.99984V6.9998C22.8483 8.13081 22.565 9.13518 21.8493 9.8508C21.1337 10.5664 20.1293 10.8497 18.9983 10.8497H16.9984C15.8674 10.8497 14.863 10.5664 14.1474 9.8508C13.4318 9.13518 13.1484 8.13081 13.1484 6.9998V4.99984C13.1484 3.86884 13.4318 2.86446 14.1474 2.14885ZM15.3495 3.35093C15.0651 3.63529 14.8484 4.13089 14.8484 4.99984V6.9998C14.8484 7.86876 15.0651 8.36436 15.3495 8.64872C15.6338 8.93308 16.1294 9.14974 16.9984 9.14974H18.9983C19.8673 9.14974 20.3629 8.93308 20.6473 8.64872C20.9316 8.36436 21.1483 7.86876 21.1483 6.9998V4.99984C21.1483 4.13089 20.9316 3.63529 20.6473 3.35093C20.3629 3.06657 19.8673 2.8499 18.9983 2.8499H16.9984C16.1294 2.8499 15.6338 3.06657 15.3495 3.35093Z" fill="white"/>
    <path d="M16.999 22.0001H18.9989C20.9989 22.0001 21.9989 21.0001 21.9989 19.0001V17.0002C21.9989 15.0002 20.9989 14.0002 18.9989 14.0002H16.999C14.999 14.0002 13.999 15.0002 13.999 17.0002V19.0001C13.999 21.0001 14.999 22.0001 16.999 22.0001Z" fill="white"/>
    <path fill-rule="evenodd" clip-rule="evenodd" d="M14.1474 14.1491C14.863 13.4335 15.8674 13.1501 16.9984 13.1501H18.9983C20.1293 13.1501 21.1337 13.4335 21.8493 14.1491C22.565 14.8647 22.8483 15.8691 22.8483 17.0001V19C22.8483 20.1311 22.565 21.1354 21.8493 21.851C21.1337 22.5667 20.1293 22.85 18.9983 22.85H16.9984C15.8674 22.85 14.863 22.5667 14.1474 21.851C13.4318 21.1354 13.1484 20.1311 13.1484 19V17.0001C13.1484 15.8691 13.4318 14.8647 14.1474 14.1491ZM15.3495 15.3512C15.0651 15.6355 14.8484 16.1311 14.8484 17.0001V19C14.8484 19.869 15.0651 20.3646 15.3495 20.649C15.6338 20.9333 16.1294 21.15 16.9984 21.15H18.9983C19.8673 21.15 20.3629 20.9333 20.6473 20.649C20.9316 20.3646 21.1483 19.869 21.1483 19V17.0001C21.1483 16.1311 20.9316 15.6355 20.6473 15.3512C20.3629 15.0668 19.8673 14.8501 18.9983 14.8501H16.9984C16.1294 14.8501 15.6338 15.0668 15.3495 15.3512Z" fill="white"/>
    <path d="M4.99994 22.0001H6.9999C8.99986 22.0001 9.99984 21.0001 9.99984 19.0001V17.0002C9.99984 15.0002 8.99986 14.0002 6.9999 14.0002H4.99994C2.99998 14.0002 2 15.0002 2 17.0002V19.0001C2 21.0001 2.99998 22.0001 4.99994 22.0001Z" fill="white"/>
    <path fill-rule="evenodd" clip-rule="evenodd" d="M2.14933 14.1491C2.86495 13.4335 3.86933 13.1501 5.00033 13.1501H7.00029C8.13129 13.1501 9.13567 13.4335 9.85129 14.1491C10.5669 14.8647 10.8502 15.8691 10.8502 17.0001V19C10.8502 20.1311 10.5669 21.1354 9.85129 21.851C9.13567 22.5667 8.13129 22.85 7.00029 22.85H5.00033C3.86933 22.85 2.86495 22.5667 2.14933 21.851C1.43372 21.1354 1.15039 20.1311 1.15039 19V17.0001C1.15039 15.8691 1.43372 14.8647 2.14933 14.1491ZM3.35142 15.3512C3.06705 15.6355 2.85039 16.1311 2.85039 17.0001V19C2.85039 19.869 3.06705 20.3646 3.35142 20.649C3.63578 20.9333 4.13137 21.15 5.00033 21.15H7.00029C7.86925 21.15 8.36484 20.9333 8.6492 20.649C8.93357 20.3646 9.15023 19.869 9.15023 19V17.0001C9.15023 16.1311 8.93357 15.6355 8.6492 15.3512C8.36484 15.0668 7.86925 14.8501 7.00029 14.8501H5.00033C4.13137 14.8501 3.63578 15.0668 3.35142 15.3512Z" fill="white"/>
  </g>
  <defs>
    <clipPath id="clip0_577_42056">
      <rect width="24" height="24" fill="white"/>
    </clipPath>
  </defs>
</svg>
