<svg width="24" height="24" viewBox="0 0 24 24" fill="none" xmlns="http://www.w3.org/2000/svg">
  <path fill-rule="evenodd" clip-rule="evenodd" d="M2.51442 4.27409C3.29034 2.882 4.78552 1.93311 6.49971 1.93311H14.7497C15.2468 1.93311 15.6497 2.33605 15.6497 2.83311V11.9998C15.6497 13.5052 14.4218 14.7331 12.9164 14.7331H11.9997C11.5027 14.7331 11.0997 14.3302 11.0997 13.8331C11.0997 13.336 11.5027 12.9331 11.9997 12.9331H12.9164C13.4277 12.9331 13.8497 12.511 13.8497 11.9998V3.73311H6.49971C5.4639 3.73311 4.55743 4.30586 4.08669 5.15043C3.84469 5.5846 3.29655 5.74039 2.86238 5.49839C2.42821 5.2564 2.27242 4.70826 2.51442 4.27409Z" fill="black"/>
  <path fill-rule="evenodd" clip-rule="evenodd" d="M13.8503 5.58311C13.8503 5.08605 14.2532 4.68311 14.7503 4.68311H16.437C17.4256 4.68311 18.3232 5.2182 18.8103 6.05703L18.8132 6.06214L18.8132 6.06215L20.3807 8.80297C20.54 9.08152 20.5389 9.42381 20.3779 9.70137C20.2169 9.97893 19.9203 10.1498 19.5994 10.1498H18.4169C18.4158 10.1498 18.415 10.1498 18.4144 10.15C18.4138 10.1501 18.4134 10.1503 18.4129 10.1504C18.4114 10.1511 18.4088 10.1526 18.4059 10.1554C18.4031 10.1583 18.4016 10.1609 18.4009 10.1624C18.4006 10.1633 18.4003 10.1641 18.4003 10.1664V12.9164C18.4003 12.9187 18.4006 12.9196 18.4009 12.9205C18.4016 12.922 18.4031 12.9246 18.4059 12.9274C18.4088 12.9303 18.4114 12.9318 18.4129 12.9324C18.4138 12.9328 18.4146 12.9331 18.4169 12.9331H21.1669C21.664 12.9331 22.0669 13.336 22.0669 13.8331V16.5831C22.0669 18.6018 20.4356 20.2331 18.4169 20.2331H17.5003C17.0032 20.2331 16.6003 19.8302 16.6003 19.3331C16.6003 18.8218 16.1782 18.3998 15.6669 18.3998C15.1556 18.3998 14.7336 18.8218 14.7336 19.3331C14.7336 19.8302 14.3306 20.2331 13.8336 20.2331H10.1669C9.66987 20.2331 9.26693 19.8302 9.26693 19.3331C9.26693 18.8218 8.84487 18.3998 8.33359 18.3998C7.82232 18.3998 7.40026 18.8218 7.40026 19.3331C7.40026 19.8302 6.99732 20.2331 6.50026 20.2331H5.58359C3.56487 20.2331 1.93359 18.6018 1.93359 16.5831C1.93359 16.086 2.33654 15.6831 2.83359 15.6831C3.33065 15.6831 3.73359 16.086 3.73359 16.5831C3.73359 17.6077 4.55898 18.4331 5.58359 18.4331H5.7529C6.12639 17.3675 7.14326 16.5998 8.33359 16.5998C9.52393 16.5998 10.5408 17.3675 10.9143 18.4331H13.0862C13.4597 17.3675 14.4766 16.5998 15.6669 16.5998C16.8573 16.5998 17.8741 17.3675 18.2476 18.4331H18.4169C19.4415 18.4331 20.2669 17.6077 20.2669 16.5831V14.7331H18.4169C17.4157 14.7331 16.6003 13.9177 16.6003 12.9164V10.1664C16.6003 9.28478 17.2326 8.54718 18.0673 8.38359L17.2524 6.95873C17.0792 6.66217 16.7675 6.48311 16.437 6.48311H15.6503V11.9998C15.6503 13.5052 14.4223 14.7331 12.9169 14.7331H12.0003C11.5032 14.7331 11.1003 14.3302 11.1003 13.8331C11.1003 13.336 11.5032 12.9331 12.0003 12.9331H12.9169C13.4282 12.9331 13.8503 12.511 13.8503 11.9998V5.58311Z" fill="black"/>
  <path fill-rule="evenodd" clip-rule="evenodd" d="M8.33294 18.4001C7.81748 18.4001 7.39961 18.818 7.39961 19.3334C7.39961 19.8489 7.81748 20.2668 8.33294 20.2668C8.84841 20.2668 9.26628 19.8489 9.26628 19.3334C9.26628 18.818 8.84841 18.4001 8.33294 18.4001ZM5.59961 19.3334C5.59961 17.8239 6.82336 16.6001 8.33294 16.6001C9.84252 16.6001 11.0663 17.8239 11.0663 19.3334C11.0663 20.843 9.84252 22.0668 8.33294 22.0668C6.82336 22.0668 5.59961 20.843 5.59961 19.3334Z" fill="black"/>
  <path fill-rule="evenodd" clip-rule="evenodd" d="M15.6669 18.4001C15.1515 18.4001 14.7336 18.818 14.7336 19.3334C14.7336 19.8489 15.1515 20.2668 15.6669 20.2668C16.1824 20.2668 16.6003 19.8489 16.6003 19.3334C16.6003 18.818 16.1824 18.4001 15.6669 18.4001ZM12.9336 19.3334C12.9336 17.8239 14.1573 16.6001 15.6669 16.6001C17.1765 16.6001 18.4003 17.8239 18.4003 19.3334C18.4003 20.843 17.1765 22.0668 15.6669 22.0668C14.1573 22.0668 12.9336 20.843 12.9336 19.3334Z" fill="black"/>
  <path fill-rule="evenodd" clip-rule="evenodd" d="M18.4003 10.1628C18.3999 10.1636 18.3996 10.1645 18.3996 10.1668V12.9168C18.3996 12.9191 18.3999 12.9199 18.4003 12.9208C18.4009 12.9223 18.4025 12.9249 18.4053 12.9278C18.4081 12.9306 18.4107 12.9321 18.4123 12.9328C18.4131 12.9331 18.414 12.9334 18.4163 12.9334H20.2663V12.2386L19.0758 10.1501H18.4163C18.414 10.1501 18.4131 10.1504 18.4123 10.1508C18.4107 10.1514 18.4081 10.1529 18.4053 10.1558C18.4025 10.1586 18.4009 10.1612 18.4003 10.1628ZM16.5996 10.1668C16.5996 9.16554 17.4151 8.3501 18.4163 8.3501H19.5988C19.9221 8.3501 20.2205 8.52352 20.3807 8.80441L21.9482 11.5544C22.0256 11.6902 22.0663 11.8438 22.0663 12.0001V13.8334C22.0663 14.3305 21.6633 14.7334 21.1663 14.7334H18.4163C17.4151 14.7334 16.5996 13.918 16.5996 12.9168V10.1668Z" fill="black"/>
  <path fill-rule="evenodd" clip-rule="evenodd" d="M1.93359 8.33311C1.93359 7.83605 2.33654 7.43311 2.83359 7.43311H8.33359C8.83065 7.43311 9.23359 7.83605 9.23359 8.33311C9.23359 8.83016 8.83065 9.23311 8.33359 9.23311H2.83359C2.33654 9.23311 1.93359 8.83016 1.93359 8.33311Z" fill="black"/>
  <path fill-rule="evenodd" clip-rule="evenodd" d="M1.93359 11.0831C1.93359 10.586 2.33654 10.1831 2.83359 10.1831H6.50026C6.99732 10.1831 7.40026 10.586 7.40026 11.0831C7.40026 11.5802 6.99732 11.9831 6.50026 11.9831H2.83359C2.33654 11.9831 1.93359 11.5802 1.93359 11.0831Z" fill="black"/>
  <path fill-rule="evenodd" clip-rule="evenodd" d="M1.93359 13.8331C1.93359 13.336 2.33654 12.9331 2.83359 12.9331H4.66693C5.16398 12.9331 5.56693 13.336 5.56693 13.8331C5.56693 14.3302 5.16398 14.7331 4.66693 14.7331H2.83359C2.33654 14.7331 1.93359 14.3302 1.93359 13.8331Z" fill="black"/>
</svg>
