<svg width="24" height="24" viewBox="0 0 24 24" fill="none" xmlns="http://www.w3.org/2000/svg">
  <path fill-rule="evenodd" clip-rule="evenodd" d="M5.80886 4.80788C5.07584 5.54089 4.65059 6.77588 4.65059 8.87461V14.1246C4.65059 16.2233 5.07584 17.4583 5.80886 18.1913C6.54187 18.9243 7.77685 19.3496 9.87559 19.3496H15.1256C17.2243 19.3496 18.4593 18.9243 19.1923 18.1913C19.9253 17.4583 20.3506 16.2233 20.3506 14.1246V9.74961C20.3506 9.25255 20.7535 8.84961 21.2506 8.84961C21.7476 8.84961 22.1506 9.25255 22.1506 9.74961V14.1246C22.1506 16.4009 21.7008 18.2284 20.4651 19.4641C19.2294 20.6999 17.4019 21.1496 15.1256 21.1496H9.87559C7.59932 21.1496 5.7718 20.6999 4.53606 19.4641C3.30033 18.2284 2.85059 16.4009 2.85059 14.1246V8.87461C2.85059 6.59834 3.30033 4.77083 4.53606 3.53509C5.7718 2.29935 7.59932 1.84961 9.87559 1.84961H14.2506C14.7476 1.84961 15.1506 2.25255 15.1506 2.74961C15.1506 3.24667 14.7476 3.64961 14.2506 3.64961H9.87559C7.77685 3.64961 6.54187 4.07487 5.80886 4.80788Z" fill="black"/>
  <path fill-rule="evenodd" clip-rule="evenodd" d="M13.9062 1.91814C14.2425 1.77884 14.6296 1.85584 14.887 2.11324L21.887 9.11324C22.1444 9.37064 22.2214 9.75774 22.0821 10.0941C21.9428 10.4304 21.6146 10.6496 21.2506 10.6496H17.7506C16.3882 10.6496 15.1936 10.4342 14.3798 9.62041C13.566 8.80663 13.3506 7.61199 13.3506 6.24964V2.74964C13.3506 2.38562 13.5699 2.05745 13.9062 1.91814ZM15.1506 4.92243V6.24964C15.1506 7.51228 15.3726 8.06764 15.6526 8.34761C15.9326 8.62758 16.4879 8.84964 17.7506 8.84964H19.0778L15.1506 4.92243Z" fill="black"/>
  <path fill-rule="evenodd" clip-rule="evenodd" d="M7.22461 12.3753C7.22461 11.8783 7.62755 11.4753 8.12461 11.4753H13.3746C13.8717 11.4753 14.2746 11.8783 14.2746 12.3753C14.2746 12.8724 13.8717 13.2753 13.3746 13.2753H8.12461C7.62755 13.2753 7.22461 12.8724 7.22461 12.3753Z" fill="black"/>
  <path fill-rule="evenodd" clip-rule="evenodd" d="M7.22461 15.8746C7.22461 15.3776 7.62755 14.9746 8.12461 14.9746H11.6246C12.1217 14.9746 12.5246 15.3776 12.5246 15.8746C12.5246 16.3717 12.1217 16.7746 11.6246 16.7746H8.12461C7.62755 16.7746 7.22461 16.3717 7.22461 15.8746Z" fill="black"/>
</svg>
