<svg width="24" height="24" viewBox="0 0 24 24" fill="none" xmlns="http://www.w3.org/2000/svg">
  <path fill-rule="evenodd" clip-rule="evenodd" d="M9.50059 3.9001C5.85551 3.9001 2.90059 6.85502 2.90059 10.5001C2.90059 12.3185 3.6348 13.9637 4.82509 15.1584C5.17592 15.5105 5.17488 16.0804 4.82277 16.4312C4.47065 16.782 3.9008 16.781 3.54998 16.4289C2.03726 14.9106 1.10059 12.8139 1.10059 10.5001C1.10059 5.86091 4.86139 2.1001 9.50059 2.1001C12.5286 2.1001 15.1813 3.70275 16.6584 6.10201C20.1201 6.18579 22.9006 9.01823 22.9006 12.5001C22.9006 14.4878 21.9933 16.2644 20.5737 17.4369C20.1904 17.7534 19.6232 17.6993 19.3066 17.316C18.9901 16.9328 19.0442 16.3655 19.4275 16.049C20.4508 15.2038 21.1006 13.9282 21.1006 12.5001C21.1006 9.95959 19.0411 7.9001 16.5006 7.9001C15.9714 7.9001 15.4681 7.62439 15.1913 7.15477C14.0424 5.20506 11.9234 3.9001 9.50059 3.9001ZM12.0006 11.1001C12.4976 11.1001 12.9006 11.503 12.9006 12.0001V18.8273L15.3642 16.3637C15.7157 16.0122 16.2855 16.0122 16.637 16.3637C16.9885 16.7152 16.9885 17.285 16.637 17.6365L12.637 21.6365C12.2855 21.988 11.7157 21.988 11.3642 21.6365L7.36419 17.6365C7.01272 17.285 7.01272 16.7152 7.36419 16.3637C7.71566 16.0122 8.28551 16.0122 8.63698 16.3637L11.1006 18.8273V12.0001C11.1006 11.503 11.5035 11.1001 12.0006 11.1001Z" fill="black"/>
</svg>
