<svg width="24" height="24" viewBox="0 0 24 24" fill="none" xmlns="http://www.w3.org/2000/svg">
  <path fill-rule="evenodd" clip-rule="evenodd" d="M5.88947 19.1001C5.6272 19.1001 5.37568 18.996 5.19022 18.8105C5.00477 18.6251 4.90059 18.3735 4.90059 18.1113L4.90059 4.88904C4.90059 4.62677 5.00477 4.37524 5.19022 4.18979C5.37568 4.00433 5.62721 3.90015 5.88947 3.90015H9.66725C10.1643 3.90015 10.5673 3.4972 10.5673 3.00015C10.5673 2.50309 10.1643 2.10015 9.66725 2.10015H5.88947C5.14982 2.10015 4.44045 2.39398 3.91743 2.91699C3.39441 3.44001 3.10059 4.14938 3.10059 4.88904L3.10059 18.1113C3.10059 18.8509 3.39441 19.5603 3.91743 20.0833C4.44045 20.6063 5.14982 20.9001 5.88947 20.9001H9.66725C10.1643 20.9001 10.5673 20.4972 10.5673 20.0001C10.5673 19.5031 10.1643 19.1001 9.66725 19.1001H5.88947Z" fill="black"/>
  <path fill-rule="evenodd" clip-rule="evenodd" d="M15.6415 16.8587C15.993 17.2102 16.5629 17.2102 16.9143 16.8587L21.6365 12.1365C21.988 11.785 21.988 11.2152 21.6365 10.8637L16.9143 6.14147C16.5629 5.79 15.993 5.79 15.6415 6.14147C15.2901 6.49295 15.2901 7.06279 15.6415 7.41427L19.7274 11.5001L15.6415 15.5859C15.2901 15.9374 15.2901 16.5072 15.6415 16.8587Z" fill="black"/>
  <path fill-rule="evenodd" clip-rule="evenodd" d="M8.7666 11.5001C8.7666 11.9972 9.16955 12.4001 9.6666 12.4001L20.9999 12.4001C21.497 12.4001 21.8999 11.9972 21.8999 11.5001C21.8999 11.0031 21.497 10.6001 20.9999 10.6001L9.6666 10.6001C9.16955 10.6001 8.7666 11.0031 8.7666 11.5001Z" fill="black"/>
</svg>
