<svg width="24" height="24" viewBox="0 0 24 24" fill="none" xmlns="http://www.w3.org/2000/svg">
  <g clip-path="url(#clip0_577_41649)">
    <path fill-rule="evenodd" clip-rule="evenodd" d="M6.26919 4C6.68341 4 7.01919 4.33579 7.01919 4.75V5.99947C7.85789 6.12896 8.5 6.85394 8.5 7.72889V10.2289C8.5 11.1038 7.85789 11.8288 7.01919 11.9583V19.2535C7.01919 19.6677 6.68341 20.0035 6.26919 20.0035C5.85498 20.0035 5.51919 19.6677 5.51919 19.2535V11.9638C4.66178 11.8508 4 11.1172 4 10.2289V7.72889C4 6.84064 4.66178 6.10695 5.51919 5.99398V4.75C5.51919 4.33579 5.85498 4 6.26919 4ZM17.7692 4C18.1834 4 18.5192 4.33579 18.5192 4.75V5.99947C19.3579 6.12896 20 6.85394 20 7.72889V10.2289C20 11.1038 19.3579 11.8288 18.5192 11.9583V19.2535C18.5192 19.6677 18.1834 20.0035 17.7692 20.0035C17.355 20.0035 17.0192 19.6677 17.0192 19.2535V11.9638C16.1618 11.8508 15.5 11.1172 15.5 10.2289V7.72889C15.5 6.84064 16.1618 6.10695 17.0192 5.99398V4.75C17.0192 4.33579 17.355 4 17.7692 4ZM11.9712 4C12.3854 4 12.7212 4.33579 12.7212 4.75L12.7212 12.0397C13.5786 12.1527 14.2404 12.8863 14.2404 13.7746L14.2404 16.2746C14.2404 17.1629 13.5786 17.8965 12.7212 18.0095V19.2535C12.7212 19.6677 12.3854 20.0035 11.9712 20.0035C11.557 20.0035 11.2212 19.6677 11.2212 19.2535V18.004C10.3825 17.8745 9.7404 17.1496 9.7404 16.2746V13.7746C9.7404 12.8996 10.3825 12.1747 11.2212 12.0452L11.2212 4.75C11.2212 4.33579 11.557 4 11.9712 4ZM5.75 7.47889C5.61193 7.47889 5.5 7.59082 5.5 7.72889V10.2289C5.5 10.367 5.61193 10.4789 5.75 10.4789H6.75C6.88807 10.4789 7 10.367 7 10.2289V7.72889C7 7.59082 6.88807 7.47889 6.75 7.47889H5.75ZM17.25 7.47889C17.1119 7.47889 17 7.59082 17 7.72889V10.2289C17 10.367 17.1119 10.4789 17.25 10.4789H18.25C18.3881 10.4789 18.5 10.367 18.5 10.2289V7.72889C18.5 7.59082 18.3881 7.47889 18.25 7.47889H17.25ZM11.4904 13.5246C11.3523 13.5246 11.2404 13.6365 11.2404 13.7746V16.2746C11.2404 16.4127 11.3523 16.5246 11.4904 16.5246H12.4904C12.6285 16.5246 12.7404 16.4127 12.7404 16.2746L12.7404 13.7746C12.7404 13.6365 12.6285 13.5246 12.4904 13.5246H11.4904Z" fill="black"/>
  </g>
  <defs>
    <clipPath id="clip0_577_41649">
      <rect width="24" height="24" fill="white"/>
    </clipPath>
  </defs>
</svg>
