<svg width="24" height="24" viewBox="0 0 24 24" fill="none" xmlns="http://www.w3.org/2000/svg">
  <path fill-rule="evenodd" clip-rule="evenodd" d="M12.5 6.39721L11.2147 5.08623C10.4257 4.28154 9.36473 3.8 8.18333 3.8C5.78707 3.8 3.8 5.83923 3.8 8.40579C3.8 9.71051 4.32861 10.9069 5.19382 11.7667L5.2097 11.7825L12.4998 19.397L19.7394 11.8327L19.7634 11.8095C20.6529 10.9465 21.2 9.75485 21.2 8.40579C21.2 5.83923 19.2129 3.8 16.8167 3.8C15.6353 3.8 14.5742 4.28154 13.7853 5.08623L12.5 6.39721ZM12.5 22L3.925 13.0434C2.72917 11.855 2 10.2029 2 8.40579C2 4.92753 4.7125 2 8.18333 2C9.78629 2 11.2321 2.62461 12.3223 3.65187C12.3826 3.70872 12.4419 3.7668 12.5 3.82608C12.5581 3.7668 12.6174 3.70872 12.6777 3.65187C13.7679 2.62461 15.2137 2 16.8167 2C20.2875 2 23 4.92753 23 8.40579C23 10.2609 22.2417 11.913 21.0167 13.1014L12.5 22Z" fill="black"/>
</svg>
