<svg width="24" height="24" viewBox="0 0 24 24" fill="none" xmlns="http://www.w3.org/2000/svg">
  <path d="M22.183 10.1095L12.5131 3.10134C12.3267 2.96622 12.0733 2.96622 11.887 3.10134L2.21697 10.1095C1.98078 10.2807 1.92946 10.609 2.10242 10.8427C2.27538 11.0765 2.60708 11.1273 2.84323 10.9561L12.2 4.1749L21.5568 10.9561C21.6511 11.0245 21.7608 11.0574 21.8695 11.0574C22.0327 11.0574 22.1937 10.9831 22.2975 10.8427C22.4705 10.609 22.4192 10.2807 22.183 10.1095Z" fill="black"/>
  <path d="M19.6207 11.0749C19.328 11.0749 19.0907 11.3098 19.0907 11.5995V19.9506H14.8504V15.3921C14.8504 13.9455 13.6614 12.7686 12.2 12.7686C10.7387 12.7686 9.54964 13.9455 9.54964 15.3921V19.9507H5.30936V11.5996C5.30936 11.3098 5.07201 11.0749 4.77932 11.0749C4.48663 11.0749 4.24928 11.3098 4.24928 11.5996V20.4753C4.24928 20.7651 4.48663 21 4.77932 21H10.0797C10.3584 21 10.5865 20.7868 10.6077 20.5162C10.6089 20.5039 10.6097 20.4905 10.6097 20.4753V15.3921C10.6097 14.5241 11.3231 13.818 12.2 13.818C13.077 13.818 13.7904 14.5241 13.7904 15.3921V20.4753C13.7904 20.4905 13.7912 20.5036 13.7924 20.5157C13.8133 20.7866 14.0415 21 14.3204 21H19.6208C19.9135 21 20.1508 20.7651 20.1508 20.4753V11.5996C20.1508 11.3098 19.9135 11.0749 19.6207 11.0749Z" fill="black"/>
</svg>
