<svg width="24" height="24" viewBox="0 0 24 24" fill="none" xmlns="http://www.w3.org/2000/svg">
  <path fill-rule="evenodd" clip-rule="evenodd" d="M7.44436 18.818C8.79247 19.7188 10.3774 20.1997 11.9987 20.2C14.1728 20.1964 16.2568 19.3312 17.7941 17.7939C19.3314 16.2566 20.1966 14.1726 20.2002 11.9986C20.1999 10.3773 19.719 8.79243 18.8182 7.44433C17.9172 6.09585 16.6365 5.04483 15.1381 4.42419C13.6398 3.80355 11.991 3.64117 10.4003 3.95757C8.80967 4.27397 7.34855 5.05494 6.20175 6.20173C5.05495 7.34853 4.27397 8.80962 3.95757 10.4003C3.64117 11.9909 3.80355 13.6396 4.4242 15.138C5.04484 16.6364 6.09586 17.917 7.44436 18.818ZM22.0002 12C22.0002 10.0222 21.4137 8.08879 20.3149 6.4443C19.216 4.79981 17.6542 3.51809 15.827 2.76121C13.9997 2.00433 11.989 1.8063 10.0492 2.19215C8.10934 2.578 6.3275 3.53041 4.92896 4.92894C3.53043 6.32746 2.57801 8.10929 2.19215 10.0491C1.8063 11.9889 2.00433 13.9996 2.76122 15.8268C3.5181 17.6541 4.79984 19.2159 6.44434 20.3147C8.08885 21.4135 10.0223 22 12.0001 22C14.6511 21.996 17.1923 20.9412 19.0669 19.0667C20.9414 17.1922 21.9962 14.651 22.0002 12Z" fill="black"/>
  <path d="M11.746 7.0674C12.0323 7.0518 12.3144 7.14227 12.5382 7.32151C12.6397 7.4002 12.7202 7.50282 12.7724 7.6202C12.8245 7.73759 12.8468 7.86607 12.8372 7.99416C12.8455 8.1221 12.8226 8.25015 12.7706 8.36731C12.7185 8.48447 12.6388 8.58724 12.5382 8.6668C12.3123 8.84071 12.0304 8.9258 11.746 8.90597C11.4669 8.9195 11.1919 8.83488 10.9687 8.6668C10.8679 8.58411 10.7882 8.47863 10.7363 8.35907C10.6843 8.23952 10.6615 8.10932 10.6697 7.97921C10.6651 7.8539 10.6896 7.72921 10.7415 7.61505C10.7934 7.50089 10.8712 7.40038 10.9687 7.32151C11.1899 7.1481 11.4651 7.05813 11.746 7.0674ZM12.6877 15.2288C12.6646 15.4652 12.7226 15.7024 12.8521 15.9015C13.0201 16.0376 13.2349 16.102 13.45 16.0809V16.335H11.8656H10.1914V16.0809C10.2981 16.0939 10.4062 16.0847 10.5092 16.0538C10.6121 16.023 10.7075 15.9711 10.7893 15.9015C10.9315 15.7077 10.9955 15.4676 10.9687 15.2288V11.462C10.9912 11.1811 10.9287 10.8998 10.7893 10.6548C10.7202 10.5643 10.6287 10.4934 10.5239 10.4488C10.4191 10.4043 10.3045 10.3877 10.1914 10.4007V10.1466H10.9388C11.526 10.1563 12.1126 10.1012 12.6877 9.9822V15.2288Z" fill="black"/>
</svg>
