<svg width="24" height="24" viewBox="0 0 24 24" fill="white" xmlns="http://www.w3.org/2000/svg">
  <g clip-path="url(#clip0_577_42043)">
    <path d="M18.5003 6.74539C18.4936 7.03225 18.388 7.30798 18.2014 7.52598C18.0149 7.74398 17.7588 7.89087 17.4764 7.94182C17.194 7.99277 16.9027 7.94466 16.6517 7.80562C16.4007 7.66657 16.2054 7.44512 16.0988 7.17871C15.9923 6.9123 15.981 6.61726 16.0668 6.34347C16.1527 6.06968 16.3305 5.83394 16.5701 5.67609C16.8097 5.51824 17.0965 5.44798 17.3819 5.47717C17.6674 5.50636 17.934 5.63322 18.1367 5.8363C18.2552 5.95571 18.3484 6.09773 18.4109 6.2539C18.4733 6.41008 18.5038 6.57722 18.5003 6.74539Z" fill="white"/>
    <path fill-rule="evenodd" clip-rule="evenodd" d="M14.0289 9.52702C13.4568 9.05718 12.7394 8.80025 11.9991 8.8C11.5788 8.79986 11.1626 8.88251 10.7743 9.04324C10.386 9.20396 10.0331 9.43961 9.73584 9.73673C9.21223 10.2601 8.88629 10.9488 8.81354 11.6856C8.74079 12.4223 8.92575 13.1615 9.33689 13.7771C9.74803 14.3928 10.3599 14.8469 11.0683 15.062C11.7767 15.2771 12.5378 15.2399 13.2218 14.9568C13.9059 14.6736 14.4706 14.1621 14.8198 13.5093C15.1689 12.8565 15.281 12.1028 15.1368 11.3767C14.9926 10.6505 14.601 9.99686 14.0289 9.52702ZM15.1713 8.13596C14.2773 7.40184 13.1565 7.00038 11.9997 7C11.343 6.99978 10.6927 7.12893 10.0859 7.38006C9.47917 7.63119 8.92781 7.9994 8.46335 8.46364C7.64521 9.2814 7.13592 10.3575 7.02225 11.5087C6.90859 12.6598 7.19758 13.8148 7.83999 14.7768C8.4824 15.7388 9.43848 16.4482 10.5453 16.7843C11.6522 17.1204 12.8413 17.0623 13.9102 16.6199C14.979 16.1776 15.8614 15.3783 16.407 14.3583C16.9526 13.3383 17.1276 12.1607 16.9023 11.0261C16.677 9.89146 16.0652 8.87009 15.1713 8.13596Z" fill="white"/>
    <path fill-rule="evenodd" clip-rule="evenodd" d="M16.0532 3.86297L16.0107 3.86042C15.0104 3.80058 14.7385 3.8 12 3.8C9.26148 3.8 8.98957 3.80058 7.98932 3.86042L7.94681 3.86297L7.90423 3.8635C7.28622 3.87119 6.67443 3.98805 6.09709 4.20868L6.08837 4.21201L6.07962 4.21525C5.66163 4.37004 5.28351 4.6163 4.97293 4.93602L4.95474 4.95474L4.93602 4.97293C4.6163 5.28351 4.37004 5.66163 4.21525 6.07962L4.21201 6.08837L4.20868 6.09709C3.98805 6.67443 3.87119 7.28622 3.8635 7.90423L3.86297 7.94681L3.86042 7.98932C3.80058 8.98957 3.8 9.26148 3.8 12C3.8 14.7385 3.80058 15.0104 3.86042 16.0107L3.86297 16.0532L3.8635 16.0958C3.87119 16.7138 3.98805 17.3256 4.20868 17.9029L4.21201 17.9116L4.21525 17.9204C4.37004 18.3384 4.6163 18.7165 4.93602 19.0271L4.95474 19.0453L4.97293 19.064C5.28351 19.3837 5.66163 19.63 6.07962 19.7847L6.08773 19.7878C6.67221 20.0074 7.28996 20.1254 7.91425 20.1367L7.95181 20.1373L7.98932 20.1396C8.98957 20.1994 9.26148 20.2 12 20.2C14.7385 20.2 15.0104 20.1994 16.0107 20.1396L16.0482 20.1373L16.0858 20.1367C16.707 20.1255 17.3219 20.0085 17.9039 19.7909C18.3319 19.6242 18.7206 19.3703 19.0455 19.0455C19.3703 18.7206 19.6242 18.3319 19.7909 17.9039C20.0085 17.3219 20.1255 16.707 20.1367 16.0858L20.1373 16.0482L20.1396 16.0107C20.1994 15.0104 20.2 14.7385 20.2 12C20.2 9.26148 20.1994 8.98957 20.1396 7.98932L20.1373 7.95181L20.1367 7.91425C20.1254 7.28996 20.0074 6.67221 19.7878 6.08773L19.7847 6.07963C19.6299 5.66164 19.3837 5.28351 19.064 4.97293L19.0472 4.9566L19.0308 4.93985C18.7169 4.61864 18.3361 4.3706 17.9154 4.21339L17.9029 4.20873C17.3256 3.9881 16.7138 3.87119 16.0958 3.8635L16.0532 3.86297ZM21.4727 18.5455C21.2156 19.2103 20.8223 19.8142 20.3183 20.3183C19.8142 20.8223 19.2103 21.2156 18.5455 21.4727C17.7687 21.7646 16.9478 21.9214 16.1182 21.9364C15.0546 22 14.7273 22 12.0002 22C9.2732 22 8.94542 22 7.88182 21.9364C7.0522 21.9214 6.23126 21.7646 5.45455 21.4727C4.78499 21.2248 4.17931 20.8303 3.68182 20.3182C3.16968 19.8207 2.77522 19.215 2.52727 18.5455C2.23093 17.77 2.07397 16.9483 2.06364 16.1182C2 15.0545 2 14.7273 2 12C2 9.27273 2 8.94545 2.06364 7.88182C2.07397 7.05173 2.23093 6.23 2.52727 5.45455C2.77522 4.78499 3.16968 4.17931 3.68182 3.68182C4.17931 3.16968 4.78499 2.77522 5.45455 2.52727C6.23 2.23093 7.05173 2.07397 7.88182 2.06364C8.94545 2 9.27273 2 12 2C14.7273 2 15.0545 2 16.1182 2.06364C16.9483 2.07397 17.77 2.23093 18.5455 2.52727C19.2141 2.77712 19.8193 3.17133 20.3182 3.68182C20.8303 4.17931 21.2248 4.78499 21.4727 5.45455C21.7646 6.23126 21.9214 7.0522 21.9364 7.88182C22 8.94542 22 9.27271 22 11.9998C22 14.7268 22 15.0546 21.9364 16.1182C21.9214 16.9478 21.7646 17.7687 21.4727 18.5455Z" fill="white"/>
  </g>
  <defs>
    <clipPath id="clip0_577_42043">
      <rect width="24" height="24" fill="white"/>
    </clipPath>
  </defs>
</svg>
