<svg width="24" height="24" viewBox="0 0 24 24" fill="none" xmlns="http://www.w3.org/2000/svg">
  <path fill-rule="evenodd" clip-rule="evenodd" d="M6.30083 8.87086C4.72184 8.87086 3.43043 10.1623 3.43043 11.7413V18.1591C3.43043 19.7381 4.72184 21.0295 6.30083 21.0295H17.2484C18.8274 21.0295 20.1188 19.7381 20.1188 18.1591V17.7395H19.0221C17.678 17.7395 16.3733 16.7566 16.2499 15.3047C16.1729 14.4824 16.486 13.7143 17.0284 13.1812C17.5163 12.6836 18.1852 12.3993 18.9077 12.3993H20.1188V11.7413C20.1188 10.1623 18.8274 8.87086 17.2484 8.87086H6.30083ZM2 11.7413C2 9.37227 3.93183 7.44043 6.30083 7.44043H17.2484C19.6174 7.44043 21.5492 9.37227 21.5492 11.7413V13.1145C21.5492 13.5095 21.229 13.8297 20.834 13.8297H18.9077C18.5653 13.8297 18.2642 13.9625 18.0469 14.1856L18.0341 14.1984C17.7804 14.4461 17.6386 14.7987 17.6743 15.1732L17.6751 15.1816L17.6751 15.1816C17.7255 15.7872 18.3078 16.3091 19.0221 16.3091H20.834C21.229 16.3091 21.5492 16.6293 21.5492 17.0243V18.1591C21.5492 20.5281 19.6174 22.46 17.2484 22.46H6.30083C3.93183 22.46 2 20.5281 2 18.1591V11.7413Z" fill="black"/>
  <path fill-rule="evenodd" clip-rule="evenodd" d="M13.7772 4.53195C13.7772 3.76188 13.0076 3.2332 12.2951 3.50326L4.72299 6.36427C3.9441 6.65913 3.43043 7.40278 3.43043 8.24155V12.5995C3.43043 12.9945 3.11022 13.3148 2.71522 13.3148C2.32021 13.3148 2 12.9945 2 12.5995V8.24155C2 6.81081 2.8788 5.53266 4.21677 5.0264L11.7881 2.16568C11.788 2.16574 11.7883 2.16563 11.7881 2.16568C13.4405 1.5397 15.2077 2.76553 15.2077 4.53195V8.15569C15.2077 8.5507 14.8874 8.87091 14.4924 8.87091C14.0974 8.87091 13.7772 8.5507 13.7772 8.15569V4.53195Z" fill="black"/>
  <path fill-rule="evenodd" clip-rule="evenodd" d="M11.7354 2.02542C13.4864 1.3621 15.358 2.66108 15.358 4.53192V8.15562C15.358 8.63346 14.9707 9.02082 14.4928 9.02082C14.015 9.02082 13.6276 8.63346 13.6276 8.15562V4.53192C13.6276 3.86652 12.9627 3.41077 12.3487 3.64351L4.77649 6.5045C4.77646 6.50451 4.77652 6.50449 4.77649 6.5045M11.8417 2.30597C11.8417 2.30597 11.8417 2.30596 11.8417 2.30597L11.8406 2.30635L4.27024 5.16667C2.99089 5.65074 2.15039 6.87281 2.15039 8.24147V12.5994C2.15039 12.9116 2.40345 13.1646 2.71561 13.1646C3.02777 13.1646 3.28082 12.9116 3.28082 12.5994V8.24147C3.28082 7.34093 3.83244 6.54153 4.66939 6.22428C4.66909 6.22439 4.66968 6.22416 4.66939 6.22428L4.67044 6.22437C4.67042 6.22441 4.67046 6.22433 4.67044 6.22437M12.2424 3.36299L4.67044 6.22437L12.2424 3.36299ZM4.77649 6.5045L4.67044 6.22437L4.77649 6.5045ZM11.839 2.30695C11.839 2.30695 11.8391 2.30695 11.839 2.30695V2.30695ZM11.7251 2.0298C11.6993 2.09437 11.7038 2.14708 11.7211 2.18853C11.6961 2.1081 11.7304 2.02915 11.7326 2.02654L11.7251 2.0298Z" fill="black"/>
  <path fill-rule="evenodd" clip-rule="evenodd" d="M18.9066 13.8298C18.5642 13.8298 18.2631 13.9626 18.0459 14.1857L18.033 14.1986C17.7793 14.4462 17.6376 14.7989 17.6732 15.1734L17.674 15.1818L17.674 15.1818C17.7245 15.7873 18.3067 16.3092 19.0211 16.3092H20.8737C21.0279 16.2993 21.1286 16.1788 21.1286 16.0518V14.0873C21.1286 13.9603 21.0279 13.8398 20.8737 13.8298H18.9066ZM17.0273 13.1813C17.5152 12.6837 18.1841 12.3994 18.9066 12.3994H20.8902C20.8987 12.3994 20.9072 12.3996 20.9157 12.3999C21.8245 12.4323 22.559 13.1677 22.559 14.0873V16.0518C22.559 16.9714 21.8245 17.7068 20.9157 17.7392C20.9072 17.7395 20.8987 17.7397 20.8902 17.7397H19.0211C17.6769 17.7397 16.3722 16.7568 16.2489 15.3048C16.1719 14.4826 16.4849 13.7145 17.0273 13.1813Z" fill="black"/>
  <path fill-rule="evenodd" clip-rule="evenodd" d="M16.9208 13.0754C17.437 12.5495 18.1442 12.2495 18.9063 12.2495H20.8898C20.9001 12.2495 20.9104 12.2497 20.9207 12.2501C21.9078 12.2853 22.7086 13.0847 22.7086 14.0874V16.0519C22.7086 17.0546 21.9078 17.854 20.9207 17.8892C20.9104 17.8896 20.9001 17.8898 20.8898 17.8898H19.0207C17.6114 17.8898 16.2304 16.8595 16.0991 15.3182C16.0179 14.4495 16.3487 13.6384 16.9208 13.0754ZM18.9063 12.5495C18.2237 12.5495 17.5935 12.8178 17.1341 13.2864L17.1321 13.2884C16.6202 13.7916 16.3253 14.5159 16.3978 15.2909L16.3979 15.2922C16.5137 16.6546 17.7418 17.5898 19.0207 17.5898H20.8898C20.8965 17.5898 20.9032 17.5896 20.91 17.5894C21.7404 17.5597 22.4086 16.8883 22.4086 16.0519V14.0874C22.4086 13.2509 21.7404 12.5795 20.91 12.5499C20.9032 12.5496 20.8965 12.5495 20.8898 12.5495H18.9063ZM18.9063 13.9799C18.6041 13.9799 18.3418 14.0965 18.1529 14.2905L18.1516 14.2918L18.1374 14.306C17.9146 14.5236 17.791 14.8321 17.8222 15.1593L17.823 15.1677C17.8232 15.1694 17.8233 15.1712 17.8234 15.173C17.8686 15.6897 18.3757 16.1593 19.0207 16.1593H20.8677C20.9407 16.1528 20.9782 16.0985 20.9782 16.0519V14.0874C20.9782 14.0408 20.9407 13.9865 20.8677 13.9799H18.9063ZM17.524 15.1922C17.524 15.1929 17.5241 15.1936 17.5241 15.1943C17.5819 15.8873 18.2384 16.4593 19.0207 16.4593H20.8734L20.883 16.459C21.1157 16.444 21.2782 16.2584 21.2782 16.0519V14.0874C21.2782 13.8809 21.1157 13.6953 20.883 13.6803L18.9063 13.6799C18.524 13.6799 18.1843 13.8286 17.9387 14.0805L17.9272 14.092C17.643 14.3698 17.4834 14.7662 17.5235 15.1877L17.524 15.1922Z" fill="black"/>
  <path fill-rule="evenodd" clip-rule="evenodd" d="M6.29102 12.2086C6.29102 11.8136 6.61123 11.4934 7.00623 11.4934H13.6816C14.0766 11.4934 14.3968 11.8136 14.3968 12.2086C14.3968 12.6036 14.0766 12.9238 13.6816 12.9238H7.00623C6.61123 12.9238 6.29102 12.6036 6.29102 12.2086Z" fill="black"/>
  <path fill-rule="evenodd" clip-rule="evenodd" d="M6.1416 12.2087C6.1416 11.7309 6.52897 11.3435 7.00682 11.3435H13.6822C14.16 11.3435 14.5474 11.7309 14.5474 12.2087C14.5474 12.6866 14.16 13.0739 13.6822 13.0739H7.00682C6.52897 13.0739 6.1416 12.6866 6.1416 12.2087ZM7.00682 11.6435C6.69466 11.6435 6.4416 11.8966 6.4416 12.2087C6.4416 12.5209 6.69466 12.7739 7.00682 12.7739H13.6822C13.9943 12.7739 14.2474 12.5209 14.2474 12.2087C14.2474 11.8966 13.9943 11.6435 13.6822 11.6435H7.00682Z" fill="black"/>
</svg>
