<svg width="24" height="24" viewBox="0 0 24 24" fill="none" xmlns="http://www.w3.org/2000/svg">
  <path fill-rule="evenodd" clip-rule="evenodd" d="M22.0002 14.2C22.442 14.2 22.8002 14.5581 22.8002 15C22.8002 19.3118 19.312 22.8 15.0002 22.8C14.712 22.8 14.446 22.6449 14.304 22.3941C14.162 22.1433 14.1659 21.8355 14.3142 21.5884L15.3642 19.8384C15.5915 19.4595 16.0829 19.3366 16.4618 19.564C16.8407 19.7913 16.9635 20.2827 16.7362 20.6615L16.5263 21.0113C19.2148 20.3326 21.2002 17.9013 21.2002 15C21.2002 14.5581 21.5584 14.2 22.0002 14.2Z" fill="#3A3A3A"/>
  <path fill-rule="evenodd" clip-rule="evenodd" d="M7.47404 2.98862C4.78563 3.66729 2.8002 6.09855 2.8002 8.99995C2.8002 9.44178 2.44202 9.79995 2.0002 9.79995C1.55837 9.79995 1.2002 9.44178 1.2002 8.99995C1.2002 4.68812 4.68837 1.19995 9.0002 1.19995C9.28841 1.19995 9.55435 1.35499 9.69636 1.60579C9.83836 1.8566 9.83448 2.1644 9.68619 2.41155L8.63619 4.16155C8.40887 4.54041 7.91746 4.66326 7.5386 4.43595C7.15973 4.20863 7.03688 3.71722 7.2642 3.33835L7.47404 2.98862Z" fill="#3A3A3A"/>
  <path fill-rule="evenodd" clip-rule="evenodd" d="M13.0069 4.04976C13.228 3.66721 13.7173 3.53631 14.0998 3.75738L17.6784 5.82538L21.2175 3.76838C21.5995 3.54637 22.0892 3.67605 22.3112 4.05804C22.5332 4.44004 22.4035 4.92969 22.0215 5.15171L18.0815 7.44168C17.8336 7.58578 17.5275 7.58616 17.2793 7.44268L13.2993 5.14269C12.9167 4.92163 12.7858 4.4323 13.0069 4.04976Z" fill="#3A3A3A"/>
  <path fill-rule="evenodd" clip-rule="evenodd" d="M17.6799 5.94019C18.1217 5.94019 18.4799 6.29836 18.4799 6.74019V10.8202C18.4799 11.262 18.1217 11.6202 17.6799 11.6202C17.2381 11.6202 16.8799 11.262 16.8799 10.8202V6.74019C16.8799 6.29836 17.2381 5.94019 17.6799 5.94019Z" fill="#3A3A3A"/>
  <path fill-rule="evenodd" clip-rule="evenodd" d="M17.6786 1.19995C18.1122 1.19995 18.5913 1.28717 18.9948 1.50869L18.9976 1.5102L21.3955 2.83902C21.8279 3.07566 22.1698 3.46047 22.4012 3.8554C22.6333 4.25131 22.7998 4.73492 22.7998 5.2199V7.75994C22.7998 8.24854 22.6284 8.73312 22.3963 9.12654C22.1641 9.51999 21.8233 9.90316 21.3983 10.1393L18.9995 11.4686C18.9991 11.4688 18.9988 11.469 18.9985 11.4692C18.5912 11.696 18.1092 11.7874 17.6711 11.7874C17.2349 11.7874 16.7537 11.6968 16.3487 11.4678L13.954 10.1408C13.5217 9.90414 13.1798 9.51935 12.9483 9.12444C12.7163 8.72852 12.5498 8.24491 12.5498 7.75994V5.2199C12.5498 4.7313 12.7212 4.24672 12.9533 3.8533C13.1855 3.45986 13.5263 3.07668 13.9513 2.84058L16.3605 1.50552C16.7656 1.2874 17.2441 1.19995 17.6786 1.19995ZM17.1224 2.91257L14.7283 4.23923C14.7282 4.23928 14.7284 4.23919 14.7283 4.23923C14.6133 4.3032 14.459 4.4501 14.3313 4.6665C14.2035 4.88308 14.1498 5.0885 14.1498 5.2199V7.75994C14.1498 7.89497 14.2033 8.10135 14.3288 8.31543C14.4543 8.52971 14.6065 8.67414 14.7229 8.73762L14.7276 8.74018L17.1353 10.0745C17.2394 10.1337 17.4313 10.1874 17.6711 10.1874C17.91 10.1874 18.1076 10.134 18.2201 10.0713L18.222 10.0702L20.6213 8.74061C20.6212 8.74064 20.6213 8.74057 20.6213 8.74061C20.7363 8.67666 20.8906 8.52978 21.0183 8.31333C21.1462 8.09675 21.1998 7.89134 21.1998 7.75994V5.2199C21.1998 5.08488 21.1463 4.87849 21.0208 4.66441C20.8953 4.45013 20.7431 4.3057 20.6267 4.24222L20.622 4.23967L18.2248 2.91121C18.2244 2.91102 18.2241 2.91083 18.2237 2.91064C18.117 2.85239 17.9216 2.79995 17.6786 2.79995C17.4378 2.79995 17.2378 2.85146 17.1224 2.91257Z" fill="#3A3A3A"/>
  <path fill-rule="evenodd" clip-rule="evenodd" d="M1.65771 15.049C1.8792 14.6667 2.36867 14.5363 2.75097 14.7578L6.3198 16.8254L9.86869 14.7679C10.2509 14.5463 10.7404 14.6766 10.962 15.0588C11.1836 15.441 11.0534 15.9305 10.6712 16.1521L6.72118 18.4421C6.4731 18.5859 6.16702 18.586 5.9189 18.4422L1.9489 16.1423C1.5666 15.9208 1.43623 15.4313 1.65771 15.049Z" fill="#3A3A3A"/>
  <path fill-rule="evenodd" clip-rule="evenodd" d="M6.32051 16.9402C6.76234 16.9402 7.12051 17.2984 7.12051 17.7402V21.8202C7.12051 22.262 6.76234 22.6202 6.32051 22.6202C5.87868 22.6202 5.52051 22.262 5.52051 21.8202V17.7402C5.52051 17.2984 5.87868 16.9402 6.32051 16.9402Z" fill="#3A3A3A"/>
  <path fill-rule="evenodd" clip-rule="evenodd" d="M6.32144 12.2C6.75589 12.2 7.23438 12.2875 7.63947 12.5056L7.64798 12.5102L10.0459 13.839C10.4783 14.0757 10.8202 14.4605 11.0516 14.8554C11.2837 15.2513 11.4502 15.7349 11.4502 16.2199V18.7599C11.4502 19.2485 11.2788 19.7331 11.0467 20.1265C10.8145 20.52 10.4737 20.9032 10.0487 21.1393L7.64984 22.4686C7.64953 22.4688 7.64921 22.469 7.64889 22.4692C7.24161 22.696 6.75962 22.7874 6.32144 22.7874C5.88528 22.7874 5.40407 22.6968 4.9991 22.4678L2.60444 21.1408C2.17208 20.9041 1.83019 20.5193 1.59875 20.1244C1.36672 19.7285 1.2002 19.2449 1.2002 18.7599V16.2199C1.2002 15.7313 1.37155 15.2467 1.60373 14.8533C1.83593 14.4599 2.17671 14.0767 2.60169 13.8406L5.00518 12.5087C5.40867 12.2872 5.88781 12.2 6.32144 12.2ZM5.77624 13.9106L3.37872 15.2392C3.37862 15.2393 3.37881 15.2392 3.37872 15.2392C3.26373 15.3032 3.10936 15.4501 2.98166 15.6665C2.85384 15.8831 2.8002 16.0885 2.8002 16.2199V18.7599C2.8002 18.895 2.85368 19.1013 2.97915 19.3154C3.10473 19.5297 3.25691 19.6741 3.37328 19.7376L3.37799 19.7402L5.78566 21.0745C5.88979 21.1337 6.08167 21.1874 6.32144 21.1874C6.56043 21.1874 6.75801 21.134 6.87054 21.0713L6.87242 21.0702L9.27168 19.7406C9.27165 19.7406 9.27172 19.7406 9.27168 19.7406C9.38669 19.6767 9.54097 19.5298 9.66873 19.3133C9.79654 19.0968 9.85019 18.8913 9.85019 18.7599V16.2199C9.85019 16.0849 9.79671 15.8785 9.67124 15.6644C9.54566 15.4501 9.39349 15.3057 9.27712 15.2422L9.27243 15.2397L6.87762 13.9126C6.76218 13.8515 6.5622 13.8 6.32144 13.8C6.07837 13.8 5.88298 13.8524 5.77624 13.9106Z" fill="#3A3A3A"/>
</svg>
