<svg width="25" height="24" viewBox="0 0 25 24" fill="none" xmlns="http://www.w3.org/2000/svg">
  <path fill-rule="evenodd" clip-rule="evenodd" d="M11.5552 2.9001C9.90445 2.9001 8.56628 4.23827 8.56628 5.88899C8.56628 7.5397 9.90445 8.87788 11.5552 8.87788C13.0292 8.87788 14.254 7.81087 14.4993 6.40711C14.5019 6.3449 14.5107 6.28432 14.5253 6.226C14.5377 6.11538 14.5441 6.00292 14.5441 5.88899C14.5441 4.23827 13.2059 2.9001 11.5552 2.9001ZM16.3211 5.41667C16.0838 2.99354 14.0406 1.1001 11.5552 1.1001C8.91033 1.1001 6.76628 3.24416 6.76628 5.88899C6.76628 6.19459 6.7949 6.49351 6.84962 6.78321C5.02961 7.97913 3.75498 9.94063 3.48584 12.2112H3.22183C2.49159 12.2112 1.89961 11.6192 1.89961 10.889C1.89961 10.4007 2.16381 9.97308 2.56137 9.7431C2.99163 9.49422 3.13865 8.94366 2.88977 8.51341C2.64088 8.08315 2.09032 7.93612 1.66007 8.18501C0.729181 8.7235 0.0996094 9.73219 0.0996094 10.889C0.0996094 12.6133 1.49748 14.0112 3.22183 14.0112H3.48589C3.68986 15.7307 4.47079 17.2742 5.62815 18.4406C5.63783 18.4504 5.64676 18.4594 5.65509 18.4678C5.65509 18.471 5.65509 18.4743 5.65509 18.4777L5.65508 21.1346C5.65505 21.2694 5.65501 21.4192 5.66565 21.5494C5.67776 21.6977 5.70804 21.8979 5.81373 22.1054C5.95328 22.3792 6.17595 22.6019 6.44983 22.7415C6.65728 22.8471 6.8575 22.8774 7.0058 22.8895C7.13602 22.9002 7.28578 22.9001 7.42062 22.9001H9.57844C9.71328 22.9001 9.86304 22.9002 9.99326 22.8895C10.1416 22.8774 10.3418 22.8471 10.5492 22.7415C10.8231 22.6019 11.0458 22.3792 11.1853 22.1054C11.291 21.8979 11.3213 21.6977 11.3334 21.5494C11.3441 21.4192 11.344 21.2694 11.344 21.1346L11.344 20.6779H12.8773L12.8773 21.1346C12.8773 21.2694 12.8772 21.4192 12.8879 21.5494C12.9 21.6977 12.9303 21.8979 13.036 22.1054C13.1755 22.3792 13.3982 22.6019 13.6721 22.7415C13.8795 22.8471 14.0797 22.8774 14.228 22.8895C14.3582 22.9002 14.508 22.9001 14.6428 22.9001H16.8007C16.9356 22.9001 17.0853 22.9002 17.2156 22.8895C17.3639 22.8774 17.5641 22.8471 17.7715 22.7415C18.0454 22.6019 18.2681 22.3792 18.4076 22.1054C18.5133 21.8979 18.5436 21.6977 18.5557 21.5494C18.5664 21.4192 18.5663 21.2694 18.5663 21.1346L18.5663 20.0271C18.5663 20.0198 18.5663 20.0127 18.5663 20.0058C18.585 19.9971 18.6052 19.9878 18.6271 19.9776C19.8662 19.4023 20.9224 18.5023 21.6874 17.3872C21.698 17.3718 21.7077 17.3577 21.7167 17.3445C21.7215 17.3445 21.7265 17.3445 21.7315 17.3445L22.3563 17.3445C22.4911 17.3446 22.6409 17.3446 22.7711 17.334C22.9194 17.3219 23.1196 17.2916 23.3271 17.1859C23.601 17.0463 23.8236 16.8237 23.9632 16.5498C24.0689 16.3424 24.0992 16.1421 24.1113 15.9938C24.1219 15.8636 24.1219 15.7139 24.1218 15.579V11.7398C24.1219 11.6114 24.1219 11.4688 24.1122 11.3447C24.1012 11.2035 24.0738 11.0126 23.9777 10.8129C23.9777 10.8129 23.9777 10.8129 23.9777 10.8129L23.1668 11.2035M18.5693 19.8081C18.5693 19.8083 18.5693 19.8089 18.5691 19.8101L18.5693 19.8081ZM7.53867 8.49794C6.13736 9.55089 5.23287 11.2259 5.23287 13.1112C5.23287 14.6958 5.87077 16.1296 6.9059 17.1728C6.91348 17.1805 6.92187 17.1888 6.93094 17.1979C7.01279 17.2795 7.1495 17.4158 7.24267 17.5688C7.32402 17.7023 7.37893 17.8356 7.41527 17.9878C7.45672 18.1613 7.45576 18.3422 7.4552 18.4472C7.45514 18.4582 7.45509 18.4684 7.45509 18.4777V21.1001H9.54398L9.54397 20.6434C9.54394 20.5086 9.54389 20.3588 9.55453 20.2286C9.56665 20.0803 9.59693 19.8801 9.70262 19.6726C9.84217 19.3987 10.0648 19.1761 10.3387 19.0365C10.5462 18.9308 10.7464 18.9006 10.8947 18.8884C11.0249 18.8778 11.1747 18.8778 11.3095 18.8779H12.9118C13.0466 18.8778 13.1964 18.8778 13.3266 18.8884C13.4749 18.9006 13.6751 18.9308 13.8826 19.0365C14.1564 19.1761 14.3791 19.3987 14.5187 19.6726C14.6244 19.8801 14.6546 20.0803 14.6668 20.2286C14.6774 20.3588 14.6773 20.5086 14.6773 20.6434L14.6773 21.1001H16.7663V20.0271C16.7663 20.0127 16.7662 19.9968 16.766 19.9795C16.7648 19.8196 16.7626 19.5457 16.85 19.2994C16.9264 19.084 17.0396 18.9066 17.2028 18.7466C17.3293 18.6226 17.4652 18.5444 17.5575 18.4954C17.6455 18.4487 17.7516 18.3995 17.8535 18.3522L17.8692 18.3449C18.8128 17.9068 19.6191 17.2202 20.2032 16.3689C20.211 16.3575 20.2195 16.3449 20.2288 16.3312C20.3112 16.2094 20.448 16.007 20.6216 15.8671C20.773 15.745 20.9316 15.6614 21.1179 15.6057C21.3307 15.542 21.5594 15.5435 21.6925 15.5444C21.7066 15.5445 21.7197 15.5445 21.7315 15.5445H22.3218V11.7891C22.3158 11.7891 22.3096 11.7892 22.3032 11.7892C22.1505 11.7904 21.8894 11.7923 21.6533 11.7127C21.4209 11.6344 21.23 11.5123 21.0613 11.3342C20.9451 11.2115 20.8712 11.0812 20.8249 10.993C20.7807 10.9087 20.7338 10.8073 20.6887 10.7097L20.6818 10.6949C20.3981 10.081 20.0091 9.52472 19.5377 9.04961C19.5301 9.04197 19.5217 9.0336 19.5127 9.02457C19.4308 8.94296 19.2941 8.80665 19.2009 8.65367C19.1196 8.52008 19.0646 8.38676 19.0283 8.23467C18.9869 8.06112 18.9878 7.88022 18.9884 7.77523C18.9884 7.76419 18.9885 7.754 18.9885 7.74474V6.52658L16.3665 7.27572C16.3636 7.27653 16.3605 7.27742 16.3572 7.27839C16.3237 7.28803 16.2653 7.30481 16.2035 7.31701C16.1769 7.32226 16.1501 7.32677 16.1233 7.33052C15.5116 9.27091 13.6977 10.6779 11.5552 10.6779C9.87267 10.6779 8.39282 9.81022 7.53867 8.49794Z" fill="black"/>
  <path d="M11.5779 8.03992C11.3479 8.03992 11.1462 8.00562 10.9726 7.93703C10.8032 7.86843 10.6599 7.77562 10.5429 7.65861C10.4299 7.54159 10.3432 7.40641 10.2826 7.25308C10.2262 7.09975 10.1979 6.93633 10.1979 6.76282C10.1979 6.73054 10.1979 6.70027 10.1979 6.67203C10.2019 6.64378 10.206 6.61554 10.21 6.58729H9.78027V6.04255H10.434L11.2147 5.63097H9.78027V5.08624H11.9532C11.9733 5.02571 11.9834 4.96115 11.9834 4.89255C11.9834 4.71904 11.937 4.59396 11.8442 4.51729C11.7554 4.44062 11.6283 4.40229 11.4629 4.40229C11.3176 4.40229 11.1784 4.43255 11.0453 4.49308C10.9162 4.54957 10.8052 4.63027 10.7124 4.73518L10.2645 4.17229C10.3936 4.02299 10.5671 3.90194 10.785 3.80913C11.0069 3.71633 11.245 3.66992 11.4992 3.66992C11.705 3.66992 11.8886 3.70019 12.05 3.76071C12.2114 3.82124 12.3466 3.90396 12.4555 4.00887C12.5685 4.11378 12.6533 4.23483 12.7097 4.37203C12.7703 4.50922 12.8005 4.65247 12.8005 4.80176C12.8005 4.84615 12.7985 4.89255 12.7945 4.94097C12.7904 4.9894 12.7824 5.03782 12.7703 5.08624H13.2182V5.63097H12.4979L11.7474 6.04255H13.2182V6.58729H11.0332C11.0211 6.63571 11.015 6.68615 11.015 6.73861C11.015 6.93633 11.0675 7.08361 11.1724 7.18045C11.2813 7.27729 11.4286 7.32571 11.6142 7.32571C11.7554 7.32571 11.8906 7.29343 12.0197 7.22887C12.1489 7.16431 12.2861 7.05334 12.4313 6.89597L12.8913 7.45887C12.7501 7.62834 12.5685 7.76755 12.3466 7.8765C12.1247 7.98545 11.8684 8.03992 11.5779 8.03992Z" fill="black"/>
</svg>
