<svg width="24" height="24" viewBox="0 0 24 24" fill="none" xmlns="http://www.w3.org/2000/svg">
  <path fill-rule="evenodd" clip-rule="evenodd" d="M13.8501 14.2385L13.1332 14.7259C12.1772 15.3758 11.0245 15.7555 9.77779 15.7555C6.47634 15.7555 3.8 13.0792 3.8 9.77777C3.8 6.47635 6.47635 3.8 9.77779 3.8C13.0792 3.8 15.7556 6.47636 15.7556 9.77777C15.7556 11.2182 15.2483 12.5353 14.401 13.5675L13.8501 14.2385ZM20.1381 21.7079L14.1452 16.2144C12.9002 17.0608 11.3968 17.5555 9.77779 17.5555C5.48224 17.5555 2 14.0733 2 9.77777C2 5.48223 5.48224 2 9.77779 2C14.0733 2 17.5556 5.48223 17.5556 9.77777C17.5556 11.6498 16.8941 13.3674 15.7922 14.7096L21.6397 20.0697C22.092 20.4844 22.1226 21.1873 21.708 21.6396C21.2934 22.0919 20.5905 22.1225 20.1381 21.7079Z" fill="black"/>
</svg>
