<svg width="24" height="24" viewBox="0 0 24 24" fill="none" xmlns="http://www.w3.org/2000/svg">
  <path fill-rule="evenodd" clip-rule="evenodd" d="M4.63437 9.91821C5.13143 9.91821 5.53437 10.3212 5.53437 10.8182V14.747C5.53437 16.6221 5.91568 17.702 6.54936 18.3357C7.18305 18.9694 8.263 19.3507 10.1381 19.3507H14.8544C16.7295 19.3507 17.8094 18.9694 18.4431 18.3357C19.0768 17.702 19.4581 16.6221 19.4581 14.747V10.8182C19.4581 10.3212 19.8611 9.91821 20.3581 9.91821C20.8552 9.91821 21.2581 10.3212 21.2581 10.8182V14.747C21.2581 16.8006 20.8519 18.4725 19.7159 19.6085C18.5799 20.7445 16.908 21.1507 14.8544 21.1507H10.1381C8.0845 21.1507 6.41257 20.7445 5.27657 19.6085C4.14057 18.4725 3.73438 16.8006 3.73438 14.747V10.8182C3.73438 10.3212 4.13732 9.91821 4.63437 9.91821Z" fill="black"/>
  <path fill-rule="evenodd" clip-rule="evenodd" d="M9.56681 2.65955C9.61294 2.19958 10 1.84937 10.4623 1.84937H14.5486C15.0114 1.84937 15.3987 2.20033 15.4442 2.66087L16.0217 8.50587C16.2311 10.6344 14.6363 12.3994 12.5011 12.3994C10.3659 12.3994 8.77103 10.6348 8.98039 8.50627L9.56681 2.65955ZM11.2766 3.64937L10.7717 8.68246C10.7717 8.68272 10.7718 8.68221 10.7717 8.68246C10.6665 9.75608 11.434 10.5994 12.5011 10.5994C13.5683 10.5994 14.3358 9.75665 14.2304 8.68286L13.7331 3.64937H11.2766Z" fill="black"/>
  <path fill-rule="evenodd" clip-rule="evenodd" d="M13.845 2.14541C14.0157 1.95691 14.2581 1.84937 14.5123 1.84937H17.1811C18.4195 1.84937 19.486 2.08176 20.2745 2.81012C21.0512 3.52753 21.3884 4.57236 21.5551 5.77593C21.5565 5.78666 21.5578 5.79742 21.5589 5.8082L21.8041 8.2165C22.0317 10.5031 20.3227 12.3994 18.0211 12.3994C16.1161 12.3994 14.4256 10.8782 14.2295 8.97535L14.2293 8.97254L13.6168 2.83879C13.5915 2.5858 13.6744 2.33392 13.845 2.14541ZM15.5067 3.64937L16.0201 8.79088C16.0201 8.7913 16.0202 8.79172 16.0202 8.79214C16.1223 9.77626 17.0389 10.5994 18.0211 10.5994C19.2542 10.5994 20.1351 9.62605 20.0131 8.39556C20.013 8.39528 20.0131 8.39583 20.0131 8.39556L19.7699 6.00706C19.6212 4.94617 19.3644 4.41979 19.0532 4.13236C18.7523 3.85447 18.2351 3.64937 17.1811 3.64937H15.5067Z" fill="black"/>
  <path fill-rule="evenodd" clip-rule="evenodd" d="M4.67301 2.81012C5.46153 2.08176 6.52805 1.84937 7.76649 1.84937H10.4352C10.6895 1.84937 10.9319 1.95693 11.1026 2.14546C11.2732 2.33399 11.3561 2.5859 11.3308 2.83892L10.7185 8.96998C10.7185 8.97034 10.7185 8.97071 10.7184 8.97107C10.5328 10.8789 8.8387 12.3994 6.93524 12.3994C4.63384 12.3994 2.92493 10.5034 3.15211 8.21708C3.15209 8.21727 3.15213 8.21689 3.15211 8.21708L3.3883 5.81142C3.38946 5.79956 3.39086 5.78773 3.3925 5.77593C3.55915 4.57236 3.89634 3.52753 4.67301 2.81012ZM5.1779 6.0055L4.94332 8.39473C4.82084 9.62561 5.70184 10.5994 6.93524 10.5994C7.91893 10.5994 8.83199 9.77543 8.92694 8.79625L8.92717 8.79396L9.44075 3.64937H7.76649C6.71244 3.64937 6.1952 3.85447 5.89435 4.13236C5.58334 4.41965 5.32663 4.94565 5.1779 6.0055Z" fill="black"/>
  <path fill-rule="evenodd" clip-rule="evenodd" d="M10.2225 15.7838C10.8157 15.1905 11.6326 14.9744 12.5006 14.9744C13.3686 14.9744 14.1855 15.1905 14.7787 15.7838C15.3719 16.377 15.5881 17.1939 15.5881 18.0619V20.2494C15.5881 20.7464 15.1851 21.1494 14.6881 21.1494H10.3131C9.81603 21.1494 9.41309 20.7464 9.41309 20.2494V18.0619C9.41309 17.1939 9.62926 16.377 10.2225 15.7838ZM11.4953 17.0565C11.36 17.1918 11.2131 17.4686 11.2131 18.0619V19.3494H13.7881V18.0619C13.7881 17.4686 13.6411 17.1918 13.5059 17.0565C13.3707 16.9213 13.0938 16.7744 12.5006 16.7744C11.9073 16.7744 11.6305 16.9213 11.4953 17.0565Z" fill="black"/>
</svg>
