<svg width="24" height="24" viewBox="0 0 24 24" fill="none" xmlns="http://www.w3.org/2000/svg">
  <g clip-path="url(#clip0_577_41653)">
    <path fill-rule="evenodd" clip-rule="evenodd" d="M7.1823 4.2354C7.49616 3.92153 8.00503 3.92153 8.3189 4.2354L11.2658 7.1823C11.5797 7.49616 11.5797 8.00503 11.2658 8.3189C10.9519 8.63276 10.4431 8.63276 10.1292 8.3189L8.5543 6.744L8.5543 11.8201C8.5543 12.264 8.19447 12.6238 7.7506 12.6238C7.30673 12.6238 6.9469 12.264 6.9469 11.8201L6.9469 6.744L5.372 8.3189C5.05814 8.63276 4.54926 8.63276 4.2354 8.3189C3.92153 8.00503 3.92153 7.49616 4.2354 7.1823L7.1823 4.2354ZM15.2518 10.3762C15.6957 10.3762 16.0555 10.736 16.0555 11.1799V16.256L17.6304 14.6811C17.9443 14.3672 18.4531 14.3672 18.767 14.6811C19.0809 14.995 19.0809 15.5038 18.767 15.8177L15.8201 18.7646C15.5062 19.0785 14.9974 19.0785 14.6835 18.7646L11.7366 15.8177C11.4227 15.5038 11.4227 14.995 11.7366 14.6811C12.0505 14.3672 12.5593 14.3672 12.8732 14.6811L14.4481 16.256V11.1799C14.4481 10.736 14.8079 10.3762 15.2518 10.3762Z" fill="black"/>
  </g>
  <defs>
    <clipPath id="clip0_577_41653">
      <rect width="24" height="24" fill="white"/>
    </clipPath>
  </defs>
</svg>
