<svg width="25" height="24" viewBox="0 0 25 24" fill="none" xmlns="http://www.w3.org/2000/svg">
  <path fill-rule="evenodd" clip-rule="evenodd" d="M6.29475 1.1001H17.9267C18.8277 1.10009 19.5585 1.10008 20.1511 1.1485C20.7626 1.19846 21.3058 1.30443 21.8104 1.5615C22.6069 1.96737 23.2546 2.61499 23.6604 3.41154C23.9175 3.91608 24.0235 4.45932 24.0734 5.07082C24.1218 5.66345 24.1218 6.39424 24.1218 7.29524V12.2605C24.1218 13.1615 24.1218 13.8923 24.0734 14.4849C24.0235 15.0964 23.9175 15.6397 23.6604 16.1442C23.2546 16.9408 22.6069 17.5884 21.8104 17.9942C21.3058 18.2513 20.7626 18.3573 20.1511 18.4073C19.5585 18.4557 18.8277 18.4557 17.9267 18.4557H14.6764L18.2285 21.2973C18.6166 21.6078 18.6796 22.1742 18.3691 22.5623C18.0585 22.9505 17.4922 23.0134 17.104 22.7029L12.1107 18.7082L7.11739 22.7029C6.72926 23.0134 6.16289 22.9505 5.85238 22.5623C5.54187 22.1742 5.6048 21.6078 5.99294 21.2973L9.54502 18.4557H6.29475C5.39375 18.4557 4.66297 18.4557 4.07033 18.4073C3.45883 18.3573 2.91559 18.2513 2.41105 17.9942C1.6145 17.5884 0.96688 16.9408 0.561016 16.1442C0.303939 15.6397 0.197974 15.0964 0.148013 14.4849C0.0995923 13.8923 0.0996 13.1615 0.0996096 12.2605V7.29524C0.0996 6.39424 0.0995923 5.66346 0.148013 5.07082C0.197974 4.45932 0.303939 3.91608 0.561016 3.41154C0.966879 2.61499 1.6145 1.96737 2.41105 1.5615C2.91559 1.30443 3.45883 1.19846 4.07033 1.1485C4.66297 1.10008 5.39375 1.10009 6.29475 1.1001ZM12.1101 16.6557C12.1105 16.6557 12.1109 16.6557 12.1114 16.6557H17.8885C18.8368 16.6557 19.4938 16.655 20.0045 16.6132C20.5047 16.5724 20.7847 16.4967 20.9932 16.3904C21.4511 16.1571 21.8233 15.7849 22.0566 15.327C22.1628 15.1185 22.2385 14.8385 22.2794 14.3384C22.3211 13.8277 22.3218 13.1706 22.3218 12.2223V7.33343C22.3218 6.38516 22.3211 5.72808 22.2794 5.21739C22.2385 4.71721 22.1628 4.43722 22.0566 4.22872C21.8233 3.77086 21.4511 3.39861 20.9932 3.16532C20.7847 3.05908 20.5047 2.98339 20.0045 2.94252C19.4938 2.9008 18.8368 2.9001 17.8885 2.9001H6.33294C5.38467 2.9001 4.7276 2.9008 4.21691 2.94252C3.71672 2.98339 3.43673 3.05908 3.22823 3.16532C2.77037 3.39861 2.39812 3.77086 2.16483 4.22872C2.05859 4.43722 1.9829 4.71721 1.94203 5.21739C1.90031 5.72808 1.89961 6.38516 1.89961 7.33343V12.2223C1.89961 13.1706 1.90031 13.8277 1.94203 14.3384C1.9829 14.8385 2.05859 15.1185 2.16483 15.327C2.39812 15.7849 2.77037 16.1571 3.22823 16.3904C3.43673 16.4967 3.71672 16.5724 4.21691 16.6132C4.7276 16.655 5.38467 16.6557 6.33294 16.6557H12.1101Z" fill="black"/>
  <path fill-rule="evenodd" clip-rule="evenodd" d="M6.76562 6.44443C6.76562 5.94738 7.16857 5.54443 7.66562 5.54443H16.5545C17.0516 5.54443 17.4545 5.94738 17.4545 6.44443C17.4545 6.94149 17.0516 7.34443 16.5545 7.34443H7.66562C7.16857 7.34443 6.76562 6.94149 6.76562 6.44443ZM6.76562 9.77777C6.76562 9.28071 7.16857 8.87777 7.66562 8.87777H14.3323C14.8293 8.87777 15.2323 9.28071 15.2323 9.77777C15.2323 10.2748 14.8293 10.6778 14.3323 10.6778H7.66562C7.16857 10.6778 6.76562 10.2748 6.76562 9.77777ZM6.76562 13.1111C6.76562 12.614 7.16857 12.2111 7.66562 12.2111H9.88785C10.3849 12.2111 10.7878 12.614 10.7878 13.1111C10.7878 13.6082 10.3849 14.0111 9.88785 14.0111H7.66562C7.16857 14.0111 6.76562 13.6082 6.76562 13.1111Z" fill="black"/>
</svg>
