<svg width="24" height="24" viewBox="0 0 24 24" xmlns="http://www.w3.org/2000/svg">
  <path fill="white" fill-rule="evenodd" clip-rule="evenodd" d="M5.59132 17.9237L5.59131 17.9237C5.07924 18.4232 4.8 19.0912 4.8 19.7779V22.0002H3V19.7779C3 18.5992 3.47998 17.4687 4.33437 16.6352C5.18875 15.8017 6.34755 15.3335 7.55583 15.3335H16.6675C17.8758 15.3335 19.0346 15.8017 19.889 16.6352C20.7434 17.4687 21.2234 18.5992 21.2234 19.7779V22.0002H19.4234V19.7779C19.4234 19.0913 19.1441 18.4233 18.632 17.9237C18.1185 17.4227 17.4126 17.1335 16.6675 17.1335H7.55583C6.81075 17.1335 6.1049 17.4227 5.59132 17.9237Z"/>
  <path fill="white" d="M16.6673 6.44445C16.6673 8.89903 14.6276 10.8889 12.1115 10.8889C9.59538 10.8889 7.55566 8.89903 7.55566 6.44445C7.55566 3.98986 9.59538 2 12.1115 2C14.6276 2 16.6673 3.98986 16.6673 6.44445Z"/>
</svg>
